MFEM mesh v1.0

#
# MFEM Geometry Types (see mesh/geom.hpp):
#
# POINT       = 0
# SEGMENT     = 1
# TRIANGLE    = 2
# SQUARE      = 3
# TETRAHEDRON = 4
# CUBE        = 5
# PRISM       = 6
# PYRAMID     = 7
#

dimension
2

elements
1552
1000 3 322 353 495 355
1000 3 353 337 354 495
1000 3 355 495 354 336
1000 3 331 356 496 358
1000 3 356 339 357 496
1000 3 358 496 357 8
1000 3 333 359 497 361
1000 3 359 341 360 497
1000 3 361 497 360 338
1000 3 8 357 498 363
1000 3 357 339 362 498
1000 3 363 498 362 325
1000 3 321 364 499 366
1000 3 364 324 365 499
1000 3 366 499 365 12
1000 3 18 367 500 89
1000 3 367 346 368 500
1000 3 89 500 368 17
1000 3 343 369 501 371
1000 3 369 347 370 501
1000 3 371 501 370 317
1000 3 17 372 502 374
1000 3 372 328 373 502
1000 3 374 502 373 323
1000 3 334 375 503 377
1000 3 375 338 376 503
1000 3 377 503 376 318
1000 3 335 378 504 380
1000 3 378 347 379 504
1000 3 380 504 379 339
1000 3 320 381 505 383
1000 3 381 326 382 505
1000 3 383 505 382 31
1000 3 335 380 506 385
1000 3 380 339 384 506
1000 3 385 506 384 321
1000 3 328 386 507 373
1000 3 386 338 387 507
1000 3 373 507 387 323
1000 3 339 379 508 362
1000 3 379 347 388 508
1000 3 362 508 388 325
1000 3 321 389 509 364
1000 3 389 331 390 509
1000 3 364 509 390 324
1000 3 348 391 510 393
1000 3 391 352 392 510
1000 3 393 510 392 347
1000 3 13 394 511 395
1000 3 394 335 385 511
1000 3 395 511 385 321
1000 3 325 388 512 396
1000 3 388 347 369 512
1000 3 396 512 369 343
1000 3 340 397 513 399
1000 3 397 348 398 513
1000 3 399 513 398 334
1000 3 32 400 514 402
1000 3 400 330 401 514
1000 3 402 514 401 320
1000 3 333 361 515 403
1000 3 361 338 386 515
1000 3 403 515 386 328
1000 3 333 404 516 406
1000 3 404 345 405 516
1000 3 406 516 405 336
1000 3 320 407 517 381
1000 3 407 337 408 517
1000 3 381 517 408 326
1000 3 347 409 518 393
1000 3 409 351 410 518
1000 3 393 518 410 348
1000 3 318 411 519 377
1000 3 411 340 399 519
1000 3 377 519 399 334
1000 3 323 412 520 414
1000 3 412 334 413 520
1000 3 414 520 413 319
1000 3 16 415 521 416
1000 3 415 323 414 521
1000 3 416 521 414 319
1000 3 323 387 522 412
1000 3 387 338 375 522
1000 3 412 522 375 334
1000 3 341 417 523 419
1000 3 417 344 418 523
1000 3 419 523 418 318
1000 3 332 420 524 421
1000 3 420 345 404 524
1000 3 421 524 404 333
1000 3 318 418 525 423
1000 3 418 344 422 525
1000 3 423 525 422 1
1000 3 336 354 526 424
1000 3 354 337 407 526
1000 3 424 526 407 320
1000 3 8 363 527 79
1000 3 363 325 425 527
1000 3 79 527 425 7
1000 3 5 426 528 76
1000 3 426 317 427 528
1000 3 76 528 427 4
1000 3 338 360 529 376
1000 3 360 341 419 529
1000 3 376 529 419 318
1000 3 316 428 530 429
1000 3 428 333 403 530
1000 3 429 530 403 328
1000 3 317 430 531 427
1000 3 430 352 431 531
1000 3 427 531 431 4
1000 3 4 431 532 433
1000 3 431 352 432 532
1000 3 433 532 432 329
1000 3 9 434 533 80
1000 3 434 331 358 533
1000 3 80 533 358 8
1000 3 26 435 534 97
1000 3 435 327 436 534
1000 3 97 534 436 25
1000 3 324 390 535 437
1000 3 390 331 434 535
1000 3 437 535 434 9
1000 3 10 438 536 81
1000 3 438 324 437 536
1000 3 81 536 437 9
1000 3 12 365 537 83
1000 3 365 324 439 537
1000 3 83 537 439 11
1000 3 13 395 538 84
1000 3 395 321 366 538
1000 3 84 538 366 12
1000 3 31 382 539 102
1000 3 382 326 440 539
1000 3 102 539 440 30
1000 3 335 441 540 378
1000 3 441 351 409 540
1000 3 378 540 409 347
1000 3 342 442 541 444
1000 3 442 350 443 541
1000 3 444 541 443 25
1000 3 17 374 542 88
1000 3 374 323 415 542
1000 3 88 542 415 16
1000 3 333 445 543 359
1000 3 445 349 446 543
1000 3 359 543 446 341
1000 3 7 425 544 78
1000 3 425 325 447 544
1000 3 78 544 447 6
1000 3 319 448 545 449
1000 3 448 351 441 545
1000 3 449 545 441 335
1000 3 329 450 546 451
1000 3 450 348 397 546
1000 3 451 546 397 340
1000 3 2 452 547 73
1000 3 452 340 453 547
1000 3 73 547 453 1
1000 3 22 454 548 456
1000 3 454 342 455 548
1000 3 456 548 455 322
1000 3 4 433 549 75
1000 3 433 329 457 549
1000 3 75 549 457 3
1000 3 19 91 550 90
1000 3 91 20 458 550
1000 3 90 550 458 18
1000 3 27 459 551 98
1000 3 459 326 460 551
1000 3 98 551 460 26
1000 3 325 396 552 447
1000 3 396 343 461 552
1000 3 447 552 461 6
1000 3 14 462 553 85
1000 3 462 335 394 553
1000 3 85 553 394 13
1000 3 327 463 554 464
1000 3 463 337 353 554
1000 3 464 554 353 322
1000 3 336 465 555 406
1000 3 465 349 445 555
1000 3 406 555 445 333
1000 3 32 402 556 103
1000 3 402 320 383 556
1000 3 103 556 383 31
1000 3 16 416 557 87
1000 3 416 319 466 557
1000 3 87 557 466 15
1000 3 330 467 558 468
1000 3 467 349 465 558
1000 3 468 558 465 336
1000 3 319 449 559 466
1000 3 449 335 469 559
1000 3 466 559 469 15
1000 3 3 457 560 74
1000 3 457 329 470 560
1000 3 74 560 470 2
1000 3 6 461 561 77
1000 3 461 343 471 561
1000 3 77 561 471 5
1000 3 15 469 562 86
1000 3 469 335 462 562
1000 3 86 562 462 14
1000 3 329 451 563 470
1000 3 451 340 452 563
1000 3 470 563 452 2
1000 3 322 455 564 464
1000 3 455 342 472 564
1000 3 464 564 472 327
1000 3 321 384 565 389
1000 3 384 339 356 565
1000 3 389 565 356 331
1000 3 5 471 566 426
1000 3 471 343 371 566
1000 3 426 566 371 317
1000 3 330 468 567 401
1000 3 468 336 424 567
1000 3 401 567 424 320
1000 3 22 456 568 93
1000 3 456 322 473 568
1000 3 93 568 473 21
1000 3 1 453 569 423
1000 3 453 340 411 569
1000 3 423 569 411 318
1000 3 328 474 570 429
1000 3 474 346 475 570
1000 3 429 570 475 316
1000 3 327 472 571 436
1000 3 472 342 444 571
1000 3 436 571 444 25
1000 3 0 476 572 477
1000 3 476 330 400 572
1000 3 477 572 400 32
1000 3 26 478 573 435
1000 3 478 337 463 573
1000 3 435 573 463 327
1000 3 336 405 574 355
1000 3 405 345 479 574
1000 3 355 574 479 322
1000 3 326 408 575 460
1000 3 408 337 478 575
1000 3 460 575 478 26
1000 3 329 432 576 450
1000 3 432 352 391 576
1000 3 450 576 391 348
1000 3 30 440 577 480
1000 3 440 326 459 577
1000 3 480 577 459 27
1000 3 322 479 578 473
1000 3 479 345 481 578
1000 3 473 578 481 21
1000 3 334 482 579 413
1000 3 482 351 448 579
1000 3 413 579 448 319
1000 3 344 483 580 484
1000 3 483 349 467 580
1000 3 484 580 467 330
1000 3 11 439 581 82
1000 3 439 324 438 581
1000 3 82 581 438 10
1000 3 348 410 582 398
1000 3 410 351 482 582
1000 3 398 582 482 334
1000 3 20 485 583 458
1000 3 485 316 486 583
1000 3 458 583 486 18
1000 3 0 487 584 476
1000 3 487 344 484 584
1000 3 476 584 484 330
1000 3 17 368 585 372
1000 3 368 346 474 585
1000 3 372 585 474 328
1000 3 25 443 586 96
1000 3 443 350 488 586
1000 3 96 586 488 24
1000 3 33 105 587 104
1000 3 105 0 477 587
1000 3 104 587 477 32
1000 3 21 489 588 92
1000 3 489 332 490 588
1000 3 92 588 490 20
1000 3 316 475 589 486
1000 3 475 346 367 589
1000 3 486 589 367 18
1000 3 21 481 590 489
1000 3 481 345 420 590
1000 3 489 590 420 332
1000 3 332 421 591 491
1000 3 421 333 428 591
1000 3 491 591 428 316
1000 3 341 446 592 417
1000 3 446 349 483 592
1000 3 417 592 483 344
1000 3 20 490 593 485
1000 3 490 332 491 593
1000 3 485 593 491 316
1000 3 1 422 594 72
1000 3 422 344 487 594
1000 3 72 594 487 0
1000 3 23 492 595 493
1000 3 492 350 442 595
1000 3 493 595 442 342
1000 3 30 494 596 101
1000 3 494 28 100 596
1000 3 101 596 100 29
1000 3 23 493 597 94
1000 3 493 342 454 597
1000 3 94 597 454 22
1000 3 24 488 598 95
1000 3 488 350 492 598
1000 3 95 598 492 23
1000 3 27 99 599 480
1000 3 99 28 494 599
1000 3 480 599 494 30
1000 3 347 392 600 370
1000 3 392 352 430 600
1000 3 370 600 430 317
832 3 34 121 601 106
832 3 106 601 122 36
832 3 601 120 37 122
832 3 121 35 120 601
833 3 36 122 602 107
833 3 107 602 123 38
833 3 602 119 39 123
833 3 122 37 119 602
834 3 117 603 604 118
834 3 118 604 123 39
834 3 604 108 38 123
834 3 603 109 108 604
834 3 109 603 605 110
834 3 110 605 124 40
834 3 605 116 41 124
834 3 603 117 116 605
835 3 40 124 606 111
835 3 111 606 125 42
835 3 606 115 43 125
835 3 124 41 115 606
836 3 42 125 607 112
836 3 112 607 113 44
836 3 607 114 45 113
836 3 125 43 114 607
837 3 46 126 608 129
837 3 126 47 127 608
837 3 608 127 48 128
837 3 129 608 128 49
838 3 50 130 609 133
838 3 130 51 131 609
838 3 609 131 52 132
838 3 133 609 132 53
839 3 54 134 610 137
839 3 134 55 135 610
839 3 610 135 56 136
839 3 137 610 136 57
840 3 58 138 611 141
840 3 138 59 139 611
840 3 611 139 60 140
840 3 141 611 140 61
841 3 62 142 612 145
841 3 142 63 143 612
841 3 612 143 64 144
841 3 145 612 144 65
842 3 66 146 613 149
842 3 146 67 147 613
842 3 613 147 68 148
842 3 149 613 148 69
2000 3 777 833 837 836
2000 3 833 772 834 837
2000 3 837 834 676 835
2000 3 836 837 835 712
2000 3 662 838 842 841
2000 3 838 713 839 842
2000 3 842 839 820 840
2000 3 841 842 840 57
2000 3 799 843 846 845
2000 3 843 814 844 846
2000 3 846 844 37 120
2000 3 845 846 120 35
2000 3 14 85 850 849
2000 3 85 13 847 850
2000 3 850 847 692 848
2000 3 849 850 848 41
2000 3 14 849 852 86
2000 3 849 41 116 852
2000 3 852 116 117 851
2000 3 86 852 851 15
2000 3 768 853 857 856
2000 3 853 810 854 857
2000 3 857 854 769 855
2000 3 856 857 855 696
2000 3 64 858 861 144
2000 3 858 637 859 861
2000 3 861 859 702 860
2000 3 144 861 860 65
2000 3 16 87 864 863
2000 3 87 15 851 864
2000 3 864 851 117 862
2000 3 863 864 862 762
2000 3 767 865 869 868
2000 3 865 634 866 869
2000 3 869 866 733 867
2000 3 868 869 867 706
2000 3 681 870 874 873
2000 3 870 628 871 874
2000 3 874 871 744 872
2000 3 873 874 872 662
2000 3 787 875 878 877
2000 3 875 781 876 878
2000 3 878 876 810 853
2000 3 877 878 853 768
2000 3 757 879 883 882
2000 3 879 743 880 883
2000 3 883 880 61 881
2000 3 882 883 881 749
2000 3 51 130 887 886
2000 3 130 50 884 887
2000 3 887 884 652 885
2000 3 886 887 885 804
2000 3 623 888 892 891
2000 3 888 711 889 892
2000 3 892 889 721 890
2000 3 891 892 890 715
2000 3 664 893 896 895
2000 3 893 736 894 896
2000 3 896 894 35 121
2000 3 895 896 121 34
2000 3 810 897 900 854
2000 3 897 779 898 900
2000 3 900 898 812 899
2000 3 854 900 899 769
2000 3 25 901 903 97
2000 3 901 648 902 903
2000 3 903 902 27 98
2000 3 97 903 98 26
2000 3 44 113 907 906
2000 3 113 45 904 907
2000 3 907 904 765 905
2000 3 906 907 905 686
2000 3 17 908 910 89
2000 3 908 685 909 910
2000 3 910 909 19 90
2000 3 89 910 90 18
2000 3 19 909 914 913
2000 3 909 685 911 914
2000 3 914 911 39 912
2000 3 913 914 912 709
2000 3 761 915 919 918
2000 3 915 757 916 919
2000 3 919 916 54 917
2000 3 918 919 917 673
2000 3 247 246 923 922
2000 3 246 245 920 923
2000 3 923 920 615 921
2000 3 922 923 921 731
2000 3 47 924 928 927
2000 3 924 666 925 928
2000 3 928 925 742 926
2000 3 927 928 926 752
2000 3 761 929 932 931
2000 3 929 632 930 932
2000 3 932 930 6 77
2000 3 931 932 77 5
2000 3 768 933 936 877
2000 3 933 631 934 936
2000 3 936 934 718 935
2000 3 877 936 935 787
2000 3 619 937 941 940
2000 3 937 66 938 941
2000 3 941 938 677 939
2000 3 940 941 939 714
2000 3 652 942 945 885
2000 3 942 632 943 945
2000 3 945 943 725 944
2000 3 885 945 944 804
2000 3 62 946 949 142
2000 3 946 625 947 949
2000 3 949 947 737 948
2000 3 142 949 948 63
2000 3 760 950 954 953
2000 3 950 740 951 954
2000 3 954 951 682 952
2000 3 953 954 952 60
2000 3 725 943 956 955
2000 3 943 632 929 956
2000 3 956 929 761 918
2000 3 955 956 918 673
2000 3 702 859 960 959
2000 3 859 637 957 960
2000 3 960 957 683 958
2000 3 959 960 958 735
2000 3 48 961 964 128
2000 3 961 620 962 964
2000 3 964 962 717 963
2000 3 128 964 963 49
2000 3 733 965 968 967
2000 3 965 63 948 968
2000 3 968 948 737 966
2000 3 967 968 966 782
2000 3 66 937 971 146
2000 3 937 619 969 971
2000 3 971 969 712 970
2000 3 146 971 970 67
2000 3 623 972 975 888
2000 3 972 52 973 975
2000 3 975 973 627 974
2000 3 888 975 974 711
2000 3 625 946 979 978
2000 3 946 62 976 979
2000 3 979 976 821 977
2000 3 978 979 977 676
2000 3 712 835 981 970
2000 3 835 676 977 981
2000 3 981 977 821 980
2000 3 970 981 980 67
2000 3 683 957 984 983
2000 3 957 637 858 984
2000 3 984 858 64 982
2000 3 983 984 982 741
2000 3 58 985 988 138
2000 3 985 653 986 988
2000 3 988 986 716 987
2000 3 138 988 987 59
2000 3 52 972 991 132
2000 3 972 623 989 991
2000 3 991 989 746 990
2000 3 132 991 990 53
2000 3 803 992 995 994
2000 3 992 797 993 995
2000 3 995 993 769 899
2000 3 994 995 899 812
2000 3 794 996 999 998
2000 3 996 737 947 999
2000 3 999 947 625 997
2000 3 998 999 997 705
2000 3 619 940 1003 1002
2000 3 940 714 1000 1003
2000 3 1003 1000 786 1001
2000 3 1002 1003 1001 808
2000 3 20 91 1006 1005
2000 3 91 19 913 1006
2000 3 1006 913 709 1004
2000 3 1005 1006 1004 668
2000 3 653 985 1009 1008
2000 3 985 58 1007 1009
2000 3 1009 1007 683 983
2000 3 1008 1009 983 741
2000 3 677 1010 1013 939
2000 3 1010 630 1011 1013
2000 3 1013 1011 665 1012
2000 3 939 1013 1012 714
2000 3 771 1014 1018 1017
2000 3 1014 817 1015 1018
2000 3 1018 1015 703 1016
2000 3 1017 1018 1016 785
2000 3 620 1019 1022 962
2000 3 1019 779 1020 1022
2000 3 1022 1020 793 1021
2000 3 962 1022 1021 717
2000 3 698 1023 1026 1025
2000 3 1023 784 1024 1026
2000 3 1026 1024 731 921
2000 3 1025 1026 921 615
2000 3 60 952 1028 140
2000 3 952 682 1027 1028
2000 3 1028 1027 749 881
2000 3 140 1028 881 61
2000 3 54 1029 1032 134
2000 3 1029 641 1030 1032
2000 3 1032 1030 748 1031
2000 3 134 1032 1031 55
2000 3 819 1033 1035 1034
2000 3 1033 777 836 1035
2000 3 1035 836 712 969
2000 3 1034 1035 969 619
2000 3 687 1036 1039 1038
2000 3 1036 46 1037 1039
2000 3 1039 1037 765 904
2000 3 1038 1039 904 45
2000 3 653 1008 1042 1041
2000 3 1008 741 982 1042
2000 3 1042 982 64 1040
2000 3 1041 1042 1040 634
2000 3 711 1043 1046 889
2000 3 1043 728 1044 1046
2000 3 1046 1044 635 1045
2000 3 889 1046 1045 721
2000 3 702 959 1050 1049
2000 3 959 735 1047 1050
2000 3 1050 1047 1 1048
2000 3 1049 1050 1048 780
2000 3 33 104 1053 1052
2000 3 104 32 103 1053
2000 3 1053 103 31 1051
2000 3 1052 1053 1051 640
2000 3 716 986 1056 1055
2000 3 986 653 1041 1056
2000 3 1056 1041 634 1054
2000 3 1055 1056 1054 801
2000 3 620 961 1060 1059
2000 3 961 48 1057 1060
2000 3 1060 1057 684 1058
2000 3 1059 1060 1058 703
2000 3 785 1061 1064 1063
2000 3 1061 746 989 1064
2000 3 1064 989 623 1062
2000 3 1063 1064 1062 807
2000 3 153 1065 1067 154
2000 3 1065 718 934 1067
2000 3 1067 934 631 1066
2000 3 154 1067 1066 155
2000 3 54 916 1069 1029
2000 3 916 757 882 1069
2000 3 1069 882 749 1068
2000 3 1029 1069 1068 641
2000 3 816 1070 1074 1073
2000 3 1070 770 1071 1074
2000 3 1074 1071 819 1072
2000 3 1073 1074 1072 809
2000 3 756 1075 1078 1077
2000 3 1075 748 1076 1078
2000 3 1078 1076 682 951
2000 3 1077 1078 951 740
2000 3 803 994 1080 1079
2000 3 994 812 898 1080
2000 3 1080 898 779 1019
2000 3 1079 1080 1019 620
2000 3 620 1059 1082 1079
2000 3 1059 703 1015 1082
2000 3 1082 1015 817 1081
2000 3 1079 1082 1081 803
2000 3 684 1083 1084 1058
2000 3 1083 746 1061 1084
2000 3 1084 1061 785 1016
2000 3 1058 1084 1016 703
2000 3 748 1075 1087 1031
2000 3 1075 756 1085 1087
2000 3 1087 1085 758 1086
2000 3 1031 1087 1086 55
2000 3 683 1007 1090 1089
2000 3 1007 58 141 1090
2000 3 1090 141 61 1088
2000 3 1089 1090 1088 764
2000 3 689 1091 1095 1094
2000 3 1091 617 1092 1095
2000 3 1095 1092 818 1093
2000 3 1094 1095 1093 783
2000 3 655 1096 1099 1098
2000 3 1096 654 1097 1099
2000 3 1099 1097 251 250
2000 3 1098 1099 250 249
2000 3 774 1100 1103 1102
2000 3 1100 816 1073 1103
2000 3 1103 1073 809 1101
2000 3 1102 1103 1101 701
2000 3 714 1012 1106 1000
2000 3 1012 665 1104 1106
2000 3 1106 1104 727 1105
2000 3 1000 1106 1105 786
2000 3 673 917 1108 955
2000 3 917 54 137 1108
2000 3 1108 137 57 1107
2000 3 955 1108 1107 725
2000 3 677 938 1111 1110
2000 3 938 66 149 1111
2000 3 1111 149 69 1109
2000 3 1110 1111 1109 736
2000 3 151 1112 1114 152
2000 3 1112 656 1113 1114
2000 3 1114 1113 718 1065
2000 3 152 1114 1065 153
2000 3 23 1115 1119 1118
2000 3 1115 788 1116 1119
2000 3 1119 1116 814 1117
2000 3 1118 1119 1117 805
2000 3 716 1055 1123 1122
2000 3 1055 801 1120 1123
2000 3 1123 1120 707 1121
2000 3 1122 1123 1121 766
2000 3 634 1040 1124 866
2000 3 1040 64 143 1124
2000 3 1124 143 63 965
2000 3 866 1124 965 733
2000 3 760 953 1127 1126
2000 3 953 60 139 1127
2000 3 1127 139 59 1125
2000 3 1126 1127 1125 806
2000 3 789 1128 1131 1130
2000 3 1128 784 1129 1131
2000 3 1131 1129 816 1100
2000 3 1130 1131 1100 774
2000 3 744 1132 1134 1133
2000 3 1132 728 1043 1134
2000 3 1134 1043 711 974
2000 3 1133 1134 974 627
2000 3 695 1135 1137 1136
2000 3 1135 56 135 1137
2000 3 1137 135 55 1086
2000 3 1136 1137 1086 758
2000 3 640 1051 1140 1139
2000 3 1051 31 102 1140
2000 3 1140 102 30 1138
2000 3 1139 1140 1138 732
2000 3 627 973 1143 1142
2000 3 973 52 131 1143
2000 3 1143 131 51 1141
2000 3 1142 1143 1141 713
2000 3 763 1144 1147 1146
2000 3 1144 817 1014 1147
2000 3 1147 1014 771 1145
2000 3 1146 1147 1145 697
2000 3 71 252 1149 315
2000 3 252 251 1097 1149
2000 3 1149 1097 654 1148
2000 3 315 1149 1148 314
2000 3 70 253 1151 150
2000 3 253 254 1150 1151
2000 3 1151 1150 656 1112
2000 3 150 1151 1112 151
2000 3 753 1152 1156 1155
2000 3 1152 687 1153 1156
2000 3 1156 1153 671 1154
2000 3 1155 1156 1154 645
2000 3 684 1057 1158 1157
2000 3 1057 48 127 1158
2000 3 1158 127 47 927
2000 3 1157 1158 927 752
2000 3 705 997 1160 1159
2000 3 997 625 978 1160
2000 3 1160 978 676 834
2000 3 1159 1160 834 772
2000 3 702 1049 1164 1163
2000 3 1049 780 1161 1164
2000 3 1164 1161 813 1162
2000 3 1163 1164 1162 822
2000 3 720 1165 1167 1166
2000 3 1165 656 1150 1167
2000 3 1167 1150 254 255
2000 3 1166 1167 255 256
2000 3 719 1168 1170 1169
2000 3 1168 312 313 1170
2000 3 1170 313 314 1148
2000 3 1169 1170 1148 654
2000 3 784 1023 1172 1129
2000 3 1023 698 1171 1172
2000 3 1172 1171 770 1070
2000 3 1129 1172 1070 816
2000 3 787 935 1174 1173
2000 3 935 718 1113 1174
2000 3 1174 1113 656 1165
2000 3 1173 1174 1165 720
2000 3 799 845 1176 1175
2000 3 845 35 894 1176
2000 3 1176 894 736 1109
2000 3 1175 1176 1109 69
2000 3 223 1177 1180 224
2000 3 1177 722 1178 1180
2000 3 1180 1178 626 1179
2000 3 224 1180 1179 225
2000 3 775 1181 1185 1184
2000 3 1181 723 1182 1185
2000 3 1185 1182 647 1183
2000 3 1184 1185 1183 700
2000 3 720 1166 1188 1187
2000 3 1166 256 257 1188
2000 3 1188 257 258 1186
2000 3 1187 1188 1186 618
2000 3 723 1189 1191 1190
2000 3 1189 618 1186 1191
2000 3 1191 1186 258 259
2000 3 1190 1191 259 260
2000 3 654 1096 1194 1169
2000 3 1096 655 1192 1194
2000 3 1194 1192 789 1193
2000 3 1169 1194 1193 719
2000 3 117 118 1196 862
2000 3 118 39 911 1196
2000 3 1196 911 685 1195
2000 3 862 1196 1195 762
2000 3 685 908 1197 1195
2000 3 908 17 88 1197
2000 3 1197 88 16 863
2000 3 1195 1197 863 762
2000 3 719 1198 1200 1168
2000 3 1198 657 1199 1200
2000 3 1200 1199 310 311
2000 3 1168 1200 311 312
2000 3 731 1201 1202 922
2000 3 1201 655 1098 1202
2000 3 1202 1098 249 248
2000 3 922 1202 248 247
2000 3 748 1030 1203 1076
2000 3 1030 641 1068 1203
2000 3 1203 1068 749 1027
2000 3 1076 1203 1027 682
2000 3 713 1141 1205 839
2000 3 1141 51 886 1205
2000 3 1205 886 804 1204
2000 3 839 1205 1204 820
2000 3 772 833 1209 1208
2000 3 833 777 1206 1209
2000 3 1209 1206 798 1207
2000 3 1208 1209 1207 790
2000 3 617 1210 1213 1092
2000 3 1210 729 1211 1213
2000 3 1213 1211 794 1212
2000 3 1092 1213 1212 818
2000 3 233 232 1217 1216
2000 3 232 231 1214 1217
2000 3 1217 1214 658 1215
2000 3 1216 1217 1215 729
2000 3 730 1218 1222 1221
2000 3 1218 792 1219 1222
2000 3 1222 1219 715 1220
2000 3 1221 1222 1220 659
2000 3 22 93 1224 1223
2000 3 93 21 92 1224
2000 3 1224 92 20 1005
2000 3 1223 1224 1005 668
2000 3 765 1225 1227 905
2000 3 1225 270 271 1227
2000 3 1227 271 272 1226
2000 3 905 1227 1226 686
2000 3 308 1228 1231 307
2000 3 1228 622 1229 1231
2000 3 1231 1229 727 1230
2000 3 307 1231 1230 306
2000 3 53 1232 1234 133
2000 3 1232 752 926 1234
2000 3 1234 926 742 1233
2000 3 133 1234 1233 50
2000 3 720 1187 1236 1173
2000 3 1187 618 1235 1236
2000 3 1236 1235 781 875
2000 3 1173 1236 875 787
2000 3 179 178 1240 1239
2000 3 178 177 1237 1240
2000 3 1240 1237 633 1238
2000 3 1239 1240 1238 721
2000 3 655 1201 1241 1192
2000 3 1201 731 1024 1241
2000 3 1241 1024 784 1128
2000 3 1192 1241 1128 789
2000 3 657 1198 1243 1242
2000 3 1198 719 1193 1243
2000 3 1243 1193 789 1130
2000 3 1242 1243 1130 774
2000 3 661 1244 1247 1246
2000 3 1244 793 1245 1247
2000 3 1247 1245 700 1183
2000 3 1246 1247 1183 647
2000 3 3 1248 1251 75
2000 3 1248 743 1249 1251
2000 3 1251 1249 642 1250
2000 3 75 1251 1250 4
2000 3 774 1102 1254 1242
2000 3 1102 701 1252 1254
2000 3 1254 1252 622 1253
2000 3 1242 1254 1253 657
2000 3 310 1199 1255 309
2000 3 1199 657 1253 1255
2000 3 1255 1253 622 1228
2000 3 309 1255 1228 308
2000 3 65 1256 1258 145
2000 3 1256 791 1257 1258
2000 3 1258 1257 821 976
2000 3 145 1258 976 62
2000 3 67 980 1260 147
2000 3 980 821 1257 1260
2000 3 1260 1257 791 1259
2000 3 147 1260 1259 68
2000 3 648 1261 1263 902
2000 3 1261 674 1262 1263
2000 3 1263 1262 28 99
2000 3 902 1263 99 27
2000 3 631 933 1266 1265
2000 3 933 768 856 1266
2000 3 1266 856 696 1264
2000 3 1265 1266 1264 690
2000 3 155 1066 1268 156
2000 3 1066 631 1265 1268
2000 3 1268 1265 690 1267
2000 3 156 1268 1267 157
2000 3 723 1190 1270 1182
2000 3 1190 260 261 1270
2000 3 1270 261 262 1269
2000 3 1182 1270 1269 647
2000 3 629 1271 1275 1274
2000 3 1271 782 1272 1275
2000 3 1275 1272 704 1273
2000 3 1274 1275 1273 722
2000 3 43 1276 1277 114
2000 3 1276 671 1153 1277
2000 3 1277 1153 687 1038
2000 3 114 1277 1038 45
2000 3 2 73 1280 1279
2000 3 73 1 1047 1280
2000 3 1280 1047 735 1278
2000 3 1279 1280 1278 636
2000 3 775 1281 1282 1181
2000 3 1281 781 1235 1282
2000 3 1282 1235 618 1189
2000 3 1181 1282 1189 723
2000 3 201 200 1286 1285
2000 3 200 199 1283 1286
2000 3 1286 1283 639 1284
2000 3 1285 1286 1284 724
2000 3 274 1287 1288 273
2000 3 1287 44 906 1288
2000 3 1288 906 686 1226
2000 3 273 1288 1226 272
2000 3 626 1289 1291 1290
2000 3 1289 658 1214 1291
2000 3 1291 1214 231 230
2000 3 1290 1291 230 229
2000 3 245 244 1294 920
2000 3 244 243 1292 1294
2000 3 1294 1292 672 1293
2000 3 920 1294 1293 615
2000 3 61 880 1297 1088
2000 3 880 743 1295 1297
2000 3 1297 1295 708 1296
2000 3 1088 1297 1296 764
2000 3 633 1298 1301 1300
2000 3 1298 173 172 1301
2000 3 1301 172 171 1299
2000 3 1300 1301 1299 659
2000 3 730 1302 1305 1304
2000 3 1302 169 168 1305
2000 3 1305 168 167 1303
2000 3 1304 1305 1303 616
2000 3 304 305 1307 1306
2000 3 305 306 1230 1307
2000 3 1307 1230 727 1104
2000 3 1306 1307 1104 665
2000 3 752 1232 1308 1157
2000 3 1232 53 990 1308
2000 3 1308 990 746 1083
2000 3 1157 1308 1083 684
2000 3 815 1309 1312 1311
2000 3 1309 793 1244 1312
2000 3 1312 1244 661 1310
2000 3 1311 1312 1310 734
2000 3 742 925 1315 1314
2000 3 925 666 1313 1315
2000 3 1315 1313 10 81
2000 3 1314 1315 81 9
2000 3 734 1310 1318 1317
2000 3 1310 661 1316 1318
2000 3 1318 1316 264 265
2000 3 1317 1318 265 266
2000 3 225 1179 1319 226
2000 3 1179 626 1290 1319
2000 3 1319 1290 229 228
2000 3 226 1319 228 227
2000 3 169 1302 1320 170
2000 3 1302 730 1221 1320
2000 3 1320 1221 659 1299
2000 3 170 1320 1299 171
2000 3 177 176 1321 1237
2000 3 176 175 174 1321
2000 3 1321 174 173 1298
2000 3 1237 1321 1298 633
2000 3 750 1322 1325 1324
2000 3 1322 300 301 1325
2000 3 1325 301 302 1323
2000 3 1324 1325 1323 630
2000 3 786 1105 1327 1326
2000 3 1105 727 1229 1327
2000 3 1327 1229 622 1252
2000 3 1326 1327 1252 701
2000 3 721 1045 1329 1239
2000 3 1045 635 1328 1329
2000 3 1329 1328 181 180
2000 3 1239 1329 180 179
2000 3 771 1330 1333 1145
2000 3 1330 616 1331 1333
2000 3 1333 1331 688 1332
2000 3 1145 1333 1332 697
2000 3 615 1293 1336 1025
2000 3 1293 672 1334 1336
2000 3 1336 1334 745 1335
2000 3 1025 1336 1335 698
2000 3 722 1177 1338 1274
2000 3 1177 223 222 1338
2000 3 1338 222 221 1337
2000 3 1274 1338 1337 629
2000 3 755 1339 1342 1341
2000 3 1339 614 1340 1342
2000 3 1342 1340 690 1264
2000 3 1341 1342 1264 696
2000 3 804 944 1343 1204
2000 3 944 725 1107 1343
2000 3 1343 1107 57 840
2000 3 1204 1343 840 820
2000 3 4 1250 1345 76
2000 3 1250 642 1344 1345
2000 3 1345 1344 761 931
2000 3 76 1345 931 5
2000 3 814 1116 1348 844
2000 3 1116 788 1346 1348
2000 3 1348 1346 823 1347
2000 3 844 1348 1347 37
2000 3 808 1001 1350 1349
2000 3 1001 786 1326 1350
2000 3 1350 1326 701 1101
2000 3 1349 1350 1101 809
2000 3 658 1289 1352 1351
2000 3 1289 626 1178 1352
2000 3 1352 1178 722 1273
2000 3 1351 1352 1273 704
2000 3 729 1215 1354 1211
2000 3 1215 658 1351 1354
2000 3 1354 1351 704 1353
2000 3 1211 1354 1353 794
2000 3 659 1220 1355 1300
2000 3 1220 715 890 1355
2000 3 1355 890 721 1238
2000 3 1300 1355 1238 633
2000 3 697 1332 1358 1146
2000 3 1332 688 1356 1358
2000 3 1358 1356 650 1357
2000 3 1146 1358 1357 763
2000 3 793 1020 1360 1245
2000 3 1020 779 1359 1360
2000 3 1360 1359 775 1184
2000 3 1245 1360 1184 700
2000 3 783 1361 1364 1094
2000 3 1361 699 1362 1364
2000 3 1364 1362 644 1363
2000 3 1094 1364 1363 689
2000 3 157 1267 1366 158
2000 3 1267 690 1340 1366
2000 3 1366 1340 614 1365
2000 3 158 1366 1365 159
2000 3 201 1285 1369 202
2000 3 1285 724 1367 1369
2000 3 1369 1367 643 1368
2000 3 202 1369 1368 203
2000 3 243 242 1372 1292
2000 3 242 241 1370 1372
2000 3 1372 1370 679 1371
2000 3 1292 1372 1371 672
2000 3 734 1317 1375 1374
2000 3 1317 266 267 1375
2000 3 1375 267 268 1373
2000 3 1374 1375 1373 646
2000 3 765 1376 1377 1225
2000 3 1376 646 1373 1377
2000 3 1377 1373 268 269
2000 3 1225 1377 269 270
2000 3 165 1378 1379 166
2000 3 1378 688 1331 1379
2000 3 1379 1331 616 1303
2000 3 166 1379 1303 167
2000 3 796 1380 1384 1383
2000 3 1380 670 1381 1384
2000 3 1384 1381 691 1382
2000 3 1383 1384 1382 706
2000 3 764 1385 1386 1089
2000 3 1385 636 1278 1386
2000 3 1386 1278 735 958
2000 3 1089 1386 958 683
2000 3 69 1387 1390 1175
2000 3 1387 800 1388 1390
2000 3 1390 1388 773 1389
2000 3 1175 1390 1389 799
2000 3 237 236 1393 1392
2000 3 236 235 1391 1393
2000 3 1393 1391 617 1091
2000 3 1392 1393 1091 689
2000 3 739 1394 1396 1395
2000 3 1394 205 204 1396
2000 3 1396 204 203 1368
2000 3 1395 1396 1368 643
2000 3 235 234 1397 1391
2000 3 234 233 1216 1397
2000 3 1397 1216 729 1210
2000 3 1391 1397 1210 617
2000 3 163 1398 1399 164
2000 3 1398 650 1356 1399
2000 3 1399 1356 688 1378
2000 3 164 1399 1378 165
2000 3 262 263 1400 1269
2000 3 263 264 1316 1400
2000 3 1400 1316 661 1246
2000 3 1269 1400 1246 647
2000 3 778 1401 1405 1404
2000 3 1401 805 1402 1405
2000 3 1405 1402 773 1403
2000 3 1404 1405 1403 726
2000 3 815 1311 1408 1407
2000 3 1311 734 1374 1408
2000 3 1408 1374 646 1406
2000 3 1407 1408 1406 802
2000 3 239 238 1410 1409
2000 3 238 237 1392 1410
2000 3 1410 1392 689 1363
2000 3 1409 1410 1363 644
2000 3 619 1002 1411 1034
2000 3 1002 808 1349 1411
2000 3 1411 1349 809 1072
2000 3 1034 1411 1072 819
2000 3 668 1004 1415 1414
2000 3 1004 709 1412 1415
2000 3 1415 1412 823 1413
2000 3 1414 1415 1413 811
2000 3 754 1416 1418 1417
2000 3 1416 745 1334 1418
2000 3 1418 1334 672 1371
2000 3 1417 1418 1371 679
2000 3 694 1419 1422 1421
2000 3 1419 806 1125 1422
2000 3 1422 1125 59 1420
2000 3 1421 1422 1420 759
2000 3 710 1423 1426 1425
2000 3 1423 678 1424 1426
2000 3 1426 1424 614 1339
2000 3 1425 1426 1339 755
2000 3 699 1427 1429 1362
2000 3 1427 754 1417 1429
2000 3 1429 1417 679 1428
2000 3 1362 1429 1428 644
2000 3 763 1357 1432 1431
2000 3 1357 650 1430 1432
2000 3 1432 1430 678 1423
2000 3 1431 1432 1423 710
2000 3 783 1433 1435 1361
2000 3 1433 790 1434 1435
2000 3 1435 1434 754 1427
2000 3 1361 1435 1427 699
2000 3 644 1428 1436 1409
2000 3 1428 679 1370 1436
2000 3 1436 1370 241 240
2000 3 1409 1436 240 239
2000 3 623 891 1438 1062
2000 3 891 715 1219 1438
2000 3 1438 1219 792 1437
2000 3 1062 1438 1437 807
2000 3 8 1439 1441 80
2000 3 1439 675 1440 1441
2000 3 1441 1440 742 1314
2000 3 80 1441 1314 9
2000 3 706 1382 1444 868
2000 3 1382 691 1442 1444
2000 3 1444 1442 624 1443
2000 3 868 1444 1443 767
2000 3 772 1445 1446 1159
2000 3 1445 818 1212 1446
2000 3 1446 1212 794 998
2000 3 1159 1446 998 705
2000 3 669 1447 1450 1449
2000 3 1447 744 871 1450
2000 3 1450 871 628 1448
2000 3 1449 1450 1448 693
2000 3 817 1144 1453 1452
2000 3 1144 763 1431 1453
2000 3 1453 1431 710 1451
2000 3 1452 1453 1451 776
2000 3 302 303 1454 1323
2000 3 303 304 1306 1454
2000 3 1454 1306 665 1011
2000 3 1323 1454 1011 630
2000 3 650 1398 1456 1430
2000 3 1398 163 162 1456
2000 3 1456 162 161 1455
2000 3 1430 1456 1455 678
2000 3 197 196 1460 1459
2000 3 196 195 1457 1460
2000 3 1460 1457 651 1458
2000 3 1459 1460 1458 738
2000 3 159 1365 1461 160
2000 3 1365 614 1424 1461
2000 3 1461 1424 678 1455
2000 3 160 1461 1455 161
2000 3 217 1462 1464 218
2000 3 1462 691 1381 1464
2000 3 1464 1381 670 1463
2000 3 218 1464 1463 219
2000 3 660 1465 1469 1468
2000 3 1465 800 1466 1469
2000 3 1469 1466 747 1467
2000 3 1468 1469 1467 667
2000 3 46 1470 1471 1037
2000 3 1470 802 1406 1471
2000 3 1471 1406 646 1376
2000 3 1037 1471 1376 765
2000 3 28 1262 1475 1474
2000 3 1262 674 1472 1475
2000 3 1475 1472 726 1473
2000 3 1474 1475 1473 660
2000 3 662 1476 1479 873
2000 3 1476 751 1477 1479
2000 3 1479 1477 663 1478
2000 3 873 1479 1478 681
2000 3 183 182 1482 1481
2000 3 182 181 1328 1482
2000 3 1482 1328 635 1480
2000 3 1481 1482 1480 669
2000 3 215 1483 1484 216
2000 3 1483 624 1442 1484
2000 3 1484 1442 691 1462
2000 3 216 1484 1462 217
2000 3 185 184 1486 1485
2000 3 184 183 1481 1486
2000 3 1486 1481 669 1449
2000 3 1485 1486 1449 693
2000 3 219 1463 1488 220
2000 3 1463 670 1487 1488
2000 3 1488 1487 629 1337
2000 3 220 1488 1337 221
2000 3 756 1077 1491 1490
2000 3 1077 740 1489 1491
2000 3 1491 1489 724 1284
2000 3 1490 1491 1284 639
2000 3 767 1443 1495 1494
2000 3 1443 624 1492 1495
2000 3 1495 1492 680 1493
2000 3 1494 1495 1493 707
2000 3 670 1380 1497 1487
2000 3 1380 796 1496 1497
2000 3 1497 1496 782 1271
2000 3 1487 1497 1271 629
2000 3 187 186 1499 1498
2000 3 186 185 1485 1499
2000 3 1499 1485 693 1448
2000 3 1498 1499 1448 628
2000 3 199 198 1501 1283
2000 3 198 197 1459 1501
2000 3 1501 1459 738 1500
2000 3 1283 1501 1500 639
2000 3 777 1033 1503 1206
2000 3 1033 819 1071 1503
2000 3 1503 1071 770 1502
2000 3 1206 1503 1502 798
2000 3 616 1330 1505 1304
2000 3 1330 771 1504 1505
2000 3 1505 1504 792 1218
2000 3 1304 1505 1218 730
2000 3 698 1335 1507 1171
2000 3 1335 745 1506 1507
2000 3 1507 1506 798 1502
2000 3 1171 1507 1502 770
2000 3 694 1421 1511 1510
2000 3 1421 759 1508 1511
2000 3 1511 1508 766 1509
2000 3 1510 1511 1509 638
2000 3 696 855 1513 1341
2000 3 855 769 993 1513
2000 3 1513 993 797 1512
2000 3 1341 1513 1512 755
2000 3 300 1322 1515 831
2000 3 1322 750 1514 1515
2000 3 1515 1514 736 893
2000 3 831 1515 893 664
2000 3 738 1458 1518 1517
2000 3 1458 651 1516 1518
2000 3 1518 1516 695 1136
2000 3 1517 1518 1136 758
2000 3 695 1519 1521 1135
2000 3 1519 663 1477 1521
2000 3 1521 1477 751 1520
2000 3 1135 1521 1520 56
2000 3 790 1207 1522 1434
2000 3 1207 798 1506 1522
2000 3 1522 1506 745 1416
2000 3 1434 1522 1416 754
2000 3 660 1473 1523 1465
2000 3 1473 726 1403 1523
2000 3 1523 1403 773 1388
2000 3 1465 1523 1388 800
2000 3 213 1524 1525 214
2000 3 1524 680 1492 1525
2000 3 1525 1492 624 1483
2000 3 214 1525 1483 215
2000 3 707 1493 1527 1121
2000 3 1493 680 1526 1527
2000 3 1527 1526 638 1509
2000 3 1121 1527 1509 766
2000 3 797 992 1529 1528
2000 3 992 803 1081 1529
2000 3 1529 1081 817 1452
2000 3 1528 1529 1452 776
2000 3 776 1451 1530 1528
2000 3 1451 710 1425 1530
2000 3 1530 1425 755 1512
2000 3 1528 1530 1512 797
2000 3 2 1531 1532 74
2000 3 1531 708 1295 1532
2000 3 1532 1295 743 1248
2000 3 74 1532 1248 3
2000 3 736 1514 1533 1110
2000 3 1514 750 1324 1533
2000 3 1533 1324 630 1010
2000 3 1110 1533 1010 677
2000 3 46 129 1535 1470
2000 3 129 49 1534 1535
2000 3 1535 1534 815 1407
2000 3 1470 1535 1407 802
2000 3 189 188 1537 1536
2000 3 188 187 1498 1537
2000 3 1537 1498 628 870
2000 3 1536 1537 870 681
2000 3 640 1139 1541 1540
2000 3 1139 732 1538 1541
2000 3 1541 1538 621 1539
2000 3 1540 1541 1539 813
2000 3 778 1542 1543 1401
2000 3 1542 24 95 1543
2000 3 1543 95 23 1118
2000 3 1401 1543 1118 805
2000 3 806 1544 1546 1126
2000 3 1544 739 1395 1546
2000 3 1546 1395 643 1545
2000 3 1126 1546 1545 760
2000 3 207 1547 1550 208
2000 3 1547 649 1548 1550
2000 3 1550 1548 694 1549
2000 3 208 1550 1549 209
2000 3 195 194 1552 1457
2000 3 194 193 1551 1552
2000 3 1552 1551 695 1516
2000 3 1457 1552 1516 651
2000 3 205 1394 1554 206
2000 3 1394 739 1553 1554
2000 3 1554 1553 649 1547
2000 3 206 1554 1547 207
2000 3 211 1555 1556 212
2000 3 1555 638 1526 1556
2000 3 1556 1526 680 1524
2000 3 212 1556 1524 213
2000 3 209 1549 1557 210
2000 3 1549 694 1510 1557
2000 3 1557 1510 638 1555
2000 3 210 1557 1555 211
2000 3 785 1063 1558 1017
2000 3 1063 807 1437 1558
2000 3 1558 1437 792 1504
2000 3 1017 1558 1504 771
2000 3 760 1545 1559 950
2000 3 1545 643 1367 1559
2000 3 1559 1367 724 1489
2000 3 950 1559 1489 740
2000 3 47 1560 1562 924
2000 3 1560 753 1155 1562
2000 3 1562 1155 645 1561
2000 3 924 1562 1561 666
2000 3 193 192 1564 1551
2000 3 192 191 1563 1564
2000 3 1564 1563 663 1519
2000 3 1551 1564 1519 695
2000 3 41 848 1566 115
2000 3 848 692 1565 1566
2000 3 1566 1565 671 1276
2000 3 115 1566 1276 43
2000 3 11 82 1568 1567
2000 3 82 10 1313 1568
2000 3 1568 1313 666 1561
2000 3 1567 1568 1561 645
2000 3 191 190 1569 1563
2000 3 190 189 1536 1569
2000 3 1569 1536 681 1478
2000 3 1563 1569 1478 663
2000 3 779 897 1570 1359
2000 3 897 810 876 1570
2000 3 1570 876 781 1281
2000 3 1359 1570 1281 775
2000 3 694 1548 1571 1419
2000 3 1548 649 1553 1571
2000 3 1571 1553 739 1544
2000 3 1419 1571 1544 806
2000 3 645 1154 1573 1567
2000 3 1154 671 1572 1573
2000 3 1573 1572 12 83
2000 3 1567 1573 83 11
2000 3 7 1574 1576 79
2000 3 1574 652 1575 1576
2000 3 1576 1575 675 1439
2000 3 79 1576 1439 8
2000 3 23 1577 1578 1115
2000 3 1577 811 1413 1578
2000 3 1578 1413 823 1346
2000 3 1115 1578 1346 788
2000 3 782 1496 1579 967
2000 3 1496 796 1383 1579
2000 3 1579 1383 706 867
2000 3 967 1579 867 733
2000 3 743 879 1580 1249
2000 3 879 757 915 1580
2000 3 1580 915 761 1344
2000 3 1249 1580 1344 642
2000 3 2 1279 1581 1531
2000 3 1279 636 1385 1581
2000 3 1581 1385 764 1296
2000 3 1531 1581 1296 708
2000 3 13 84 1582 847
2000 3 84 12 1572 1582
2000 3 1582 1572 671 1565
2000 3 847 1582 1565 692
2000 3 652 884 1583 1575
2000 3 884 50 1233 1583
2000 3 1583 1233 742 1440
2000 3 1575 1583 1440 675
2000 3 758 1085 1584 1517
2000 3 1085 756 1490 1584
2000 3 1584 1490 639 1500
2000 3 1517 1584 1500 738
2000 3 49 963 1585 1534
2000 3 963 717 1021 1585
2000 3 1585 1021 793 1309
2000 3 1534 1585 1309 815
2000 3 667 1467 1588 1587
2000 3 1467 747 1586 1588
2000 3 1588 1586 68 1259
2000 3 1587 1588 1259 791
2000 3 814 843 1589 1117
2000 3 843 799 1389 1589
2000 3 1589 1389 773 1402
2000 3 1117 1589 1402 805
2000 3 59 987 1590 1420
2000 3 987 716 1122 1590
2000 3 1590 1122 766 1508
2000 3 1420 1590 1508 759
2000 3 634 865 1591 1054
2000 3 865 767 1494 1591
2000 3 1591 1494 707 1120
2000 3 1054 1591 1120 801
2000 3 292 293 1594 1593
2000 3 293 294 1592 1594
2000 3 1594 1592 34 106
2000 3 1593 1594 106 36
2000 3 292 1593 1595 291
2000 3 1593 36 107 1595
2000 3 1595 107 38 829
2000 3 291 1595 829 290
2000 3 284 285 1597 1596
2000 3 285 286 828 1597
2000 3 1597 828 38 108
2000 3 1596 1597 108 109
2000 3 284 1596 1598 283
2000 3 1596 109 110 1598
2000 3 1598 110 40 825
2000 3 283 1598 825 282
2000 3 276 1599 1600 275
2000 3 1599 42 112 1600
2000 3 1600 112 44 1287
2000 3 275 1600 1287 274
2000 3 687 1152 1601 1036
2000 3 1152 753 1560 1601
2000 3 1601 1560 47 126
2000 3 1036 1601 126 46
2000 3 747 1466 1602 1586
2000 3 1466 800 1387 1602
2000 3 1602 1387 69 148
2000 3 1586 1602 148 68
2000 3 0 105 1604 72
2000 3 105 33 1603 1604
2000 3 1604 1603 780 1048
2000 3 72 1604 1048 1
2000 3 6 930 1605 78
2000 3 930 632 942 1605
2000 3 1605 942 652 1574
2000 3 78 1605 1574 7
2000 3 668 1414 1606 1223
2000 3 1414 811 1577 1606
2000 3 1606 1577 23 94
2000 3 1223 1606 94 22
2000 3 778 1607 1608 1542
2000 3 1607 648 901 1608
2000 3 1608 901 25 96
2000 3 1542 1608 96 24
2000 3 732 1138 1610 1538
2000 3 1138 30 101 1610
2000 3 1610 101 29 1609
2000 3 1538 1610 1609 621
2000 3 667 1611 1614 1613
2000 3 1611 795 1612 1614
2000 3 1614 1612 621 1609
2000 3 1613 1614 1609 29
2000 3 28 1474 1615 100
2000 3 1474 660 1468 1615
2000 3 1615 1468 667 1613
2000 3 100 1615 1613 29
2000 3 640 1540 1616 1052
2000 3 1540 813 1161 1616
2000 3 1616 1161 780 1603
2000 3 1052 1616 1603 33
2000 3 294 295 1617 1592
2000 3 295 296 832 1617
2000 3 1617 832 664 895
2000 3 1592 1617 895 34
2000 3 37 1347 1618 119
2000 3 1347 823 1412 1618
2000 3 1618 1412 709 912
2000 3 119 1618 912 39
2000 3 276 277 1619 1599
2000 3 277 278 826 1619
2000 3 1619 826 40 111
2000 3 1599 1619 111 42
2000 3 751 1476 1620 1520
2000 3 1476 662 841 1620
2000 3 1620 841 57 136
2000 3 1520 1620 136 56
2000 3 726 1472 1621 1404
2000 3 1472 674 1261 1621
2000 3 1621 1261 648 1607
2000 3 1404 1621 1607 778
2000 3 627 1142 1622 1133
2000 3 1142 713 838 1622
2000 3 1622 838 662 872
2000 3 1133 1622 872 744
2000 3 65 1623 1624 1256
2000 3 1623 795 1611 1624
2000 3 1624 1611 667 1587
2000 3 1256 1624 1587 791
2000 3 635 1044 1625 1480
2000 3 1044 728 1132 1625
2000 3 1625 1132 744 1447
2000 3 1480 1625 1447 669
2000 3 65 860 1627 1623
2000 3 860 702 1163 1627
2000 3 1627 1163 822 1626
2000 3 1623 1627 1626 795
2000 3 782 966 1628 1272
2000 3 966 737 996 1628
2000 3 1628 996 794 1353
2000 3 1272 1628 1353 704
2000 3 818 1445 1629 1093
2000 3 1445 772 1208 1629
2000 3 1629 1208 790 1433
2000 3 1093 1629 1433 783
2000 3 621 1612 1630 1539
2000 3 1612 795 1626 1630
2000 3 1630 1626 822 1162
2000 3 1539 1630 1162 813
2000 3 40 824 1631 825
2000 3 824 280 281 1631
2000 3 825 1631 281 282
2000 3 280 824 1632 279
2000 3 824 40 826 1632
2000 3 279 1632 826 278
2000 3 288 827 1633 287
2000 3 827 38 828 1633
2000 3 287 1633 828 286
2000 3 38 827 1634 829
2000 3 827 288 289 1634
2000 3 829 1634 289 290
2000 3 664 830 1635 831
2000 3 830 298 299 1635
2000 3 831 1635 299 300
2000 3 298 830 1636 297
2000 3 830 664 832 1636
2000 3 297 1636 832 296

boundary
168
831 1 150 70
831 1 151 150
831 1 152 151
831 1 153 152
831 1 154 153
831 1 155 154
831 1 156 155
831 1 157 156
831 1 158 157
831 1 159 158
831 1 160 159
831 1 161 160
831 1 162 161
831 1 163 162
831 1 164 163
831 1 165 164
831 1 166 165
831 1 167 166
831 1 168 167
831 1 169 168
831 1 170 169
831 1 171 170
831 1 172 171
831 1 173 172
831 1 174 173
831 1 175 174
831 1 176 175
831 1 177 176
831 1 178 177
831 1 179 178
831 1 180 179
831 1 181 180
831 1 182 181
831 1 183 182
831 1 184 183
831 1 185 184
831 1 186 185
831 1 187 186
831 1 188 187
831 1 189 188
831 1 190 189
831 1 191 190
831 1 192 191
831 1 193 192
831 1 194 193
831 1 195 194
831 1 196 195
831 1 197 196
831 1 198 197
831 1 199 198
831 1 200 199
831 1 201 200
831 1 202 201
831 1 203 202
831 1 204 203
831 1 205 204
831 1 206 205
831 1 207 206
831 1 208 207
831 1 209 208
831 1 210 209
831 1 211 210
831 1 212 211
831 1 213 212
831 1 214 213
831 1 215 214
831 1 216 215
831 1 217 216
831 1 218 217
831 1 219 218
831 1 220 219
831 1 221 220
831 1 222 221
831 1 223 222
831 1 224 223
831 1 225 224
831 1 226 225
831 1 227 226
831 1 228 227
831 1 229 228
831 1 230 229
831 1 231 230
831 1 232 231
831 1 233 232
831 1 234 233
831 1 235 234
831 1 236 235
831 1 237 236
831 1 238 237
831 1 239 238
831 1 240 239
831 1 241 240
831 1 242 241
831 1 243 242
831 1 244 243
831 1 245 244
831 1 246 245
831 1 247 246
831 1 248 247
831 1 249 248
831 1 250 249
831 1 251 250
831 1 252 251
831 1 71 252
900 1 70 253
900 1 253 254
900 1 254 255
900 1 255 256
900 1 256 257
900 1 257 258
900 1 258 259
900 1 259 260
900 1 260 261
900 1 261 262
900 1 262 263
900 1 263 264
900 1 264 265
900 1 265 266
900 1 266 267
900 1 267 268
900 1 268 269
900 1 269 270
900 1 270 271
900 1 271 272
900 1 272 273
900 1 273 274
900 1 274 275
900 1 275 276
900 1 276 277
900 1 277 278
900 1 278 279
900 1 279 280
900 1 280 281
900 1 281 282
900 1 282 283
900 1 283 284
900 1 284 285
900 1 285 286
900 1 286 287
900 1 287 288
900 1 288 289
900 1 289 290
900 1 290 291
900 1 291 292
900 1 292 293
900 1 293 294
900 1 294 295
900 1 295 296
900 1 296 297
900 1 297 298
900 1 298 299
900 1 299 300
900 1 300 301
900 1 301 302
900 1 302 303
900 1 303 304
900 1 304 305
900 1 305 306
900 1 306 307
900 1 307 308
900 1 308 309
900 1 309 310
900 1 310 311
900 1 311 312
900 1 312 313
900 1 313 314
900 1 314 315
900 1 315 71

vertices
1637
2
6.267 -3.046
7.283 -2.257
7.899 -1.342
8.306 -0.421
8.395 0.633
8.27 1.681
7.904 2.464
7.4 3.179
6.587 3.894
5.753 4.532
4.904 4.712
4.311 4.324
4.126 3.582
4.076 2.566
4.046 1.549
4.046 0.533
4.067 -0.484
4.097 -1.5
4.178 -2.306
3.9579 -2.5384
4.3257 -2.6514
4.5066 -2.941
4.467 -3.2801
4.1799 -3.8847
4.4918 -3.9092
4.6456 -3.746
4.9982 -3.7414
5.2529 -3.9852
5.2727 -4.2636
5.565 -4.5559
5.572 -3.896
5.6842 -3.5265
5.9821 -3.2822
6.3655 -3.2446
0.946 -5.415
2.446 -5.415
0.946 -3.6067
2.446 -3.6067
0.946 -1.7983
2.446 -1.7983
0.946 1.8183
2.446 1.8183
0.946 3.6267
2.446 3.6267
0.946 5.435
2.446 5.435
2.9431 6.8241
4.9431 6.8241
4.9431 8.3241
2.9431 8.3241
7.2851 5.7898
9.2851 5.7898
9.2851 7.2898
7.2851 7.2898
10.9919 2.5252
12.9919 2.5252
12.9919 4.0252
10.9919 4.0252
10.963 -2.9836
12.963 -2.9836
12.963 -1.4836
10.963 -1.4836
7.3908 -7.4769
9.3908 -7.4769
9.3908 -5.9769
7.3908 -5.9769
3.334 -8.2165
5.334 -8.2165
5.334 -6.7165
3.334 -6.7165
0 16
0 -16
6.775 -2.6515
7.591 -1.7995
8.1025 -0.8815
8.3505 0.106
8.3325 1.157
8.087 2.0725
7.652 2.8215
6.9935 3.5365
6.17 4.213
5.3285 4.622
4.6075 4.518
4.2185 3.953
4.101 3.074
4.061 2.0575
4.046 1.041
4.0565 0.0245
4.082 -0.992
4.1375 -1.903
4.06795 -2.4222
4.1418 -2.5949
4.41615 -2.7962
4.4868 -3.11055
4.32345 -3.5824
4.33585 -3.89695
4.5687 -3.8276
4.8219 -3.7437
5.12555 -3.8633
5.2628 -4.1244
5.41885 -4.40975
5.5685 -4.22595
5.6281 -3.71125
5.83315 -3.40435
6.1738 -3.2634
6.31625 -3.1453
0.946 -4.51085
0.946 -2.7025
0.946 -0.89415
0.946 0.0099999999999989
0.946 0.91415
0.946 2.7225
0.946 4.53085
1.696 5.435
2.446 4.53085
2.446 2.7225
2.446 0.91415
2.446 0.010000000000001
2.446 -0.89415
2.446 -2.7025
2.446 -4.51085
1.696 -5.415
1.696 -3.6067
1.696 -1.7983
1.696 1.8183
1.696 3.6267
3.9431 6.8241
4.9431 7.5741
3.9431 8.3241
2.9431 7.5741
8.2851 5.7898
9.2851 6.5398
8.2851 7.2898
7.2851 6.5398
11.9919 2.5252
12.9919 3.2752
11.9919 4.0252
10.9919 3.2752
11.963 -2.9836
12.963 -2.2336
11.963 -1.4836
10.963 -2.2336
8.3908 -7.4769
9.3908 -6.7269
8.3908 -5.9769
7.3908 -6.7269
4.334 -8.2165
5.334 -7.4665
4.334 -6.7165
3.334 -7.4665
0.48324844481422 15.992700551833
0.96605595875657 15.970808867573
1.4479820132742 15.934344921873
1.9285868840852 15.883341985569
2.4074320523965 15.817846595321
2.8840806050225 15.737918511154
3.3580976330376 15.643630661934
3.8290506286009 15.535069078817
4.29650987959 15.41233281676
4.7600488616832 15.275533864137
5.2192446275339 15.124797040554
5.6736781926806 14.960259882967
6.1229349178414 14.782072520181
6.5666048872441 14.590397535873
7.0042832826454 14.385409820247
7.4355707527003 14.167296410451
7.860073777342 13.936256319928
8.2774050268425 13.692500356823
8.6871837152237 13.436250931638
9.0890359476985 13.167741854299
9.4825950618243 12.887218120815
9.8675019620567 12.594935689745
10.2434054474 12.291161248644
10.609962531853 11.976171970738
10.966838757361 11.650255262013
11.313708498985 11.313708498985
11.650255262013 10.966838757361
11.976171970738 10.609962531853
12.291161248644 10.2434054474
12.594935689745 9.8675019620567
12.887218120815 9.4825950618243
13.167741854298 9.0890359476985
13.436250931638 8.6871837152237
13.692500356823 8.2774050268425
13.936256319928 7.860073777342
14.167296410451 7.4355707527003
14.385409820247 7.0042832826454
14.590397535873 6.5666048872441
14.782072520181 6.1229349178414
14.960259882967 5.6736781926806
15.124797040554 5.2192446275339
15.275533864137 4.7600488616832
15.41233281676 4.29650987959
15.535069078817 3.8290506286009
15.643630661934 3.3580976330376
15.737918511154 2.8840806050225
15.817846595321 2.4074320523965
15.883341985569 1.9285868840852
15.934344921873 1.4479820132742
15.970808867573 0.96605595875659
15.992700551833 0.48324844481423
16 3.9188697572715e-15
15.992700551833 -0.48324844481422
15.970808867573 -0.96605595875657
15.934344921873 -1.4479820132742
15.883341985569 -1.9285868840852
15.817846595321 -2.4074320523965
15.737918511154 -2.8840806050225
15.643630661934 -3.3580976330376
15.535069078817 -3.8290506286009
15.41233281676 -4.29650987959
15.275533864137 -4.7600488616832
15.124797040554 -5.2192446275339
14.960259882967 -5.6736781926806
14.782072520181 -6.1229349178414
14.590397535873 -6.5666048872441
14.385409820247 -7.0042832826454
14.167296410451 -7.4355707527003
13.936256319928 -7.860073777342
13.692500356823 -8.2774050268425
13.436250931638 -8.6871837152237
13.167741854299 -9.0890359476985
12.887218120815 -9.4825950618243
12.594935689745 -9.8675019620567
12.291161248644 -10.2434054474
11.976171970738 -10.609962531853
11.650255262013 -10.966838757361
11.313708498985 -11.313708498985
10.966838757361 -11.650255262013
10.609962531853 -11.976171970738
10.2434054474 -12.291161248644
9.8675019620567 -12.594935689745
9.4825950618243 -12.887218120815
9.0890359476985 -13.167741854298
8.6871837152237 -13.436250931638
8.2774050268425 -13.692500356823
7.860073777342 -13.936256319928
7.4355707527003 -14.167296410451
7.0042832826455 -14.385409820247
6.5666048872441 -14.590397535873
6.1229349178414 -14.782072520181
5.6736781926806 -14.960259882967
5.2192446275339 -15.124797040554
4.7600488616832 -15.275533864137
4.29650987959 -15.41233281676
3.8290506286009 -15.535069078817
3.3580976330376 -15.643630661934
2.8840806050225 -15.737918511154
2.4074320523965 -15.817846595321
1.9285868840852 -15.883341985569
1.4479820132742 -15.934344921873
0.96605595875659 -15.970808867573
0.48324844481423 -15.992700551833
0 15.5
0 15
0 14.5
0 14
0 13.5
0 13
0 12.5
0 12
0 11.5
0 11
0 10.5
0 10
0 9.5
0 9
0 8.5
0 8
0 7.5
0 7
0 6.5
0 6
0 5.5
0 5
0 4.5
0 4
0 3.5
0 3
0 2.5
0 2
0 1.5
0 1
0 0.5
0 0
0 -0.5
0 -1
0 -1.5
0 -2
0 -2.5
0 -3
0 -3.5
0 -4
0 -4.5
0 -5
0 -5.5
0 -6
0 -6.5
0 -7
0 -7.5
0 -8
0 -8.5
0 -9
0 -9.5
0 -10
0 -10.5
0 -11
0 -11.5
0 -12
0 -12.5
0 -13
0 -13.5
0 -14
0 -14.5
0 -15
0 -15.5
4.5533395184335 -2.2688690224752
7.4363384427944 1.3488112303908
6.2469941987718 -1.6542618263894
4.9946088769085 0.1703717426858
5.4635438249346 -3.2498266373594
4.8925961995867 3.0175243888808
4.7873503924292 -3.2138569183128
4.888342163218 -0.9151203515504
4.8827807559432 3.9760899688233
6.7464057388705 2.6137880112766
5.3853135418843 -3.7005072543272
4.830652874497 -3.5303600318285
4.7585618511451 -1.749303488152
7.4707346039831 -0.10077379794439
5.7272972738622 -2.9359852131821
5.6001870048736 3.6393863747711
4.6524254793167 -2.6150244792588
5.0687976112798 -2.3501835694527
5.887268894104 -0.45235405912457
4.9934315105679 1.5792378261775
5.2190815007652 -2.948756859129
5.1456368933566 -3.4285800289168
5.4228557807505 -1.5618173290916
5.8327103157022 2.7315866578577
6.9311390277791 -0.92740588940665
5.6526799680196 -2.1302346906309
4.5435466655833 -3.4895374354298
7.2813102028907 1.9286857055605
6.1069573513237 -2.4316033026127
4.8432414210892 -2.8643017847225
4.4011968566181 -1.9250805265031
6.3751314319677 1.4929418522437
6.6526627406074 0.20436505234069
5.4647726672889 -2.5661380854737
4.4652116663958 -3.7573593588574
5.8669528127529 0.54304988337192
7.2659734438705 0.71566886740616
4.9664936428929 -3.3212184736148
5.1823591970609 -3.1886684440229
5.0032159465972 -3.0813068887209
5.7164486602879 3.1854865163144
6.2098551578511 3.3127933289289
6.0935935024368 3.7666931873856
5.3607387896497 -2.2402091300418
5.537767874385 -1.8460260098613
5.2458266960152 -1.9560004492722
6.2895580272863 2.6726873345672
6.6667028694352 3.2538940056383
4.8876884777649 3.4968071788521
4.5043903779716 3.7790449844117
4.5092980997933 3.2997621944404
4.2895984283091 -2.1155402632515
4.2490984283091 -1.7125402632515
6.8282208174292 1.7108137789021
6.9057349373811 1.4208765413172
7.3588243228425 1.6387484679757
4.4277809255725 -1.624651744076
4.8234520071815 -1.3322119198512
4.492671081609 -1.2075601757752
5.6550623374272 -1.0070856941081
5.8349249897611 -1.6080395777405
6.0671315464379 -1.053307942757
5.6842814712678 1.5360898392106
6.103920873835 2.1122642550507
5.413070913135 2.1554122420176
5.4244286834094 -3.4751669458433
5.5347567709421 -3.6135036271636
5.5738719124673 -3.3881633186797
5.3626532576444 2.8745555233692
4.9430138550773 2.2983811075292
5.0907088159478 -1.6555604086218
5.1555989719842 -1.238468840321
6.5607685854191 2.0533649317601
5.2463916022301 3.3284553818259
5.2414838804084 3.8077381717972
6.959318092239 0.46001695987342
6.8205524379191 1.1043053598249
6.5138970862876 0.84865345229217
4.5347157552839 2.0726189130888
4.4842980997933 2.7917621944404
7.0138579708806 2.2712368584186
6.7919008841932 -0.36152041853298
6.2699658173557 -0.12399450339194
6.4092039609415 -0.68987997426561
5.8546986369311 -3.109092606591
5.5954205493984 -3.0929059252707
5.7228219124673 -3.2660133186797
4.9136797312125 -2.0497435288023
4.9560195161845 -2.6072426770876
5.0311614609272 -2.9065293219258
5.1439395560225 -2.6494702142909
5.3045903591456 -3.3392033331381
5.2654752176204 -3.564543641622
6.1210421223603 1.0179958678078
6.2598077766801 0.37370746785631
6.5890666132754 -1.290833857898
5.387805528661 -0.68373720533748
5.4409388855062 -0.14099115821938
4.9414755200632 -0.3723743044323
4.477671081609 -0.6995601757752
4.5308044384542 -0.1568141286571
5.8798186596717 -2.2809189966218
6.1769757750478 -2.042932564501
5.9498370833957 -1.8922482585102
4.7478334502029 -2.7396631319907
4.8606115452983 -2.4826040243558
6.6949786756619 -2.3443016513063
6.7649970993859 -1.9556309131947
5.3413126628499 -3.0992917482442
7.0732028694352 2.8963940056383
7.8531692213972 1.5149056151954
7.9156692213972 0.99090561519542
4.8110685648567 -2.309526295964
4.6559506847893 -2.0090862553136
7.3511559433325 1.0322400488985
7.8304867219353 0.67433443370308
7.3683540239268 0.30744753473089
7.9328673019915 0.26611310102781
5.6765935024368 4.0856931873856
4.9144264372485 -3.6358800159143
4.7381264372485 -3.6381800159143
5.3178903779716 4.2540449844117
4.8933903779716 4.3440449844117
4.5968903779716 4.1500449844117
5.4786567709421 -3.7982536271636
5.4301921616604 1.0611438547747
4.5043791659896 -3.6234483971436
4.5554058331979 -3.7516796794287
4.5945733327916 -3.6177687177149
5.2667851392844 -2.4581608274632
5.5587263176542 -2.3481863880523
7.3252028694352 2.5388940056383
5.4307808448307 0.35671081302886
4.9940201937382 0.87480478443167
7.0616986722952 0.05179562719815
7.2009368158811 -0.51408984367552
7.4150695138895 -1.1347029447033
7.1070695138895 -1.5922029447033
4.5052733327916 -3.3848187177149
4.6654485290062 -3.3516971768713
4.6271751962146 -3.2469784591564
7.8883673019915 -0.26088689897219
4.25185 -2.4787
5.3191067709421 -3.8428536271636
5.1917567709421 -3.7209536271636
7.5926551014453 2.1963428527803
4.5197157552839 1.5641189130888
4.9881448839268 -3.4794700303727
4.8090016334631 -3.3721084750707
5.341927084027 -2.7574474723014
4.5203044384542 0.3516858713429
5.5960349705755 -2.7510616493279
5.4731893873137 -2.9423710361555
4.5197157552839 1.0561189130888
7.6848673019915 -0.72138689897219
7.7756551014453 1.8048428527803
4.6870997700402 -3.5099487336292
4.6469751962146 -3.0774284591564
4.5798793538816 -1.8371920073275
4.4772681875258 -2.0969747744891
5.9971486369311 -2.990992606591
6.12455 -3.1641
5.0719184466783 -3.5849900144584
4.8152959067592 -3.0390793515176
5.41245 -3.9406
4.6749207105446 -2.9026508923613
5.8771108534284 0.045347912123675
5.7858650093063 -2.4988706940432
5.917127312593 -2.6837942578974
4.4395197592167 -2.4601345112376
4.3656697592167 -2.2874345112376
6.1869786756619 -2.7388016513063
4.4785058331979 -3.8332796794287
4.5795127396583 -2.7780122396294
4.4890627396583 -2.6332122396294
4.6028824988751 -2.441946750867
4.3225558331979 -3.8210296794287
4.3617233327916 -3.6871187177149
5.42235 -4.0798
5.050689595517 -3.1970646021195
6.0066324401919 3.4216576775429
5.38144445335 -2.0140785297251
6.3887053515242 3.0797915563781
4.63379231851 3.5252047859014
4.225398952206 -1.910360175501
7.0309266925509 1.5901462627317
4.581301338121 -1.3881412799008
5.8523729578754 -1.2228110715352
5.7337577527459 1.9345887787596
5.5110191222729 -3.4922779638956
5.2395793419522 2.4427829576387
5.0232532650378 -1.4087470562647
6.3180824955135 2.2794388404593
5.1251879868012 3.5443335774917
6.7645892054819 0.80432525733017
4.6540092367182 2.3875874050194
6.8009491245763 2.0118051896936
6.4903568874968 -0.39179829873018
5.7243136995989 -3.1560039501805
5.0834050810585 -1.8871014622321
5.0437068443781 -2.7210807377681
5.3314980867251 -3.4596379735345
6.2982489951093 0.74678559598542
6.3551340402183 -1.0113405916402
5.2567399780768 -0.39903422266305
4.6499836800422 -0.40958286962153
5.3994889460241 -0.9764305799222
6.0022105060384 -2.072033273211
4.8548215038952 -2.6098366111447
6.5456505166985 -2.114288376334
5.2760874063521 -3.2090545084684
6.9111352462902 3.2289293370922
8.0337794809315 1.2209370767969
5.7741766491806 -1.7821046153707
4.7935663269528 -2.1227853600266
7.6991039622216 0.899160032599
7.7105693492845 0.41596502315392
5.9800623349579 4.021795458257
4.8248176248323 -3.6725866772762
5.4119892536056 4.0491587811981
5.1799269186477 4.4066966562744
4.4399269186477 3.9606966562744
4.3648653998622 3.0551747962936
5.5471711806281 -3.7076690847757
5.7451719184295 1.2050765205977
4.5514527773264 -3.6642989314291
4.3507807210727 -0.9663734505168
5.3954167488628 -2.3488521151858
7.3501352462902 2.7522626704255
5.2849977334098 0.76421981741175
7.0181787907899 -0.27460487833678
7.371046342593 -1.5088019631356
4.5992990193375 -3.3278314512475
8.0572448679944 0.037075400685204
4.1538666666667 -2.4986
5.2121378472948 -3.8090357514424
7.310571980587 2.3354912389457
4.3718105035226 1.8980792753925
4.9212133867609 -3.3909323263527
5.2508839264446 -2.6216928380185
5.7099479416449 -3.3528422124531
4.3692029589695 0.073123914228601
5.4703838139721 -2.8169600525949
4.6780134624921 0.76086985628778
7.891911534661 -0.62125793264813
7.8184367342969 2.0245619018535
4.3618105035226 1.2204126087258
7.4336245439207 -0.79005989578368
4.7205166441698 -3.411251461857
5.4418311733875 3.1294991405032
7.6625495485617 1.6528323119838
5.469974199854 -3.0448562365568
4.5869834641431 -3.1449856394376
6.8203777421836 -1.6128892385987
4.5710327420656 -1.9810843457101
4.6732665133601 -3.5886324890861
5.9921324246207 -3.0880617377274
4.9914965892845 -3.5667800202485
4.9498911047612 -3.0089718540548
5.1763834784136 -3.6234957610814
7.1297902628203 0.27308670726749
5.4034045139614 -3.8605690847757
4.7123972711728 -3.0063862343451
5.5829435279218 0.08702252231105
5.7663424308249 -2.6445755337561
4.6992602519811 4.3373633229411
6.1356281491548 0.098353625529346
4.3523465061445 -2.4087563408251
6.0337515417286 -2.8045295052649
4.4189195692544 -1.7247946715517
4.5342038887986 -3.8041864529525
6.2048666666667 -3.1909333333333
4.4949084931056 -2.7358081597529
4.3775121250172 -2.1666498496594
4.6674223001353 -2.8067754213271
4.7581875363433 -2.4113590237289
5.7414699955441 -2.3759920262391
4.5104883325834 -2.511764500578
6.5523191171079 -2.5782011008709
4.396219443993 -3.7105322647624
5.4699 -4.2385
4.3968155551944 -3.5514458118099
4.3789705554653 -3.8504197862858
5.3658666666667 -4.0482666666667
7.0258144395442 1.1858073166802
1.696 -4.51085
1.696 -2.7025
1.696 0.01
1.696 -0.89415
1.696 0.91415
1.696 2.7225
1.696 4.53085
3.9431 7.5741
8.2851 6.5398
11.9919 3.2752
11.963 -2.2336
8.3908 -6.7269
4.334 -7.4665
4.8544653219841 14.222407690631
3.917916460765 -14.483787827107
8.1925214520429 12.545214146991
8.0994619049323 -12.542743682602
1.0177495938536 12.956075059727
3.7566493036379 -9.7938507608165
4.5400169249135 9.9947538918726
6.1182118354589 -4.3033819221171
1.0547670189841 -11.93735264669
9.1497825108557 8.928920027214
13.489388581048 -6.5819917469317
7.7797999198467 -8.9374244856964
10.996470483787 -10.984930109651
10.653474658979 7.1487166700695
13.545391876193 6.6843818503073
11.988395518979 -9.0671872039216
1.0574864485257 -8.7760646508606
2.9507116582779 14.68441208098
8.6677050692096 3.0286994128079
10.916155959206 10.938331186281
11.229282320467 -5.9784532355396
12.242159410168 8.6294041601258
8.5569194545278 -2.1541500857695
8.7814769185921 -4.5193611257389
14.241963561725 -4.7288835098516
14.97299405461 1.0698522660701
6.1580487064271 -3.6798377568186
11.819752286543 1.2611367924181
9.0032338776163 0.75653716635863
14.990204130259 -1.1143174830903
6.6663951586881 -13.597676684693
4.2779828628576 4.9937618479923
1.1764426610543 7.9065155371133
1.0115002533421 11.033450157772
4.8651278460954 -4.0829944373433
15.105996577307 -2.8337583687532
6.6154358230009 13.539822588179
15.083687632432 2.8315870351732
7.8231384330016 4.2647335117625
11.114571167764 -4.5015861548183
0.99486894840335 -14.937725196314
1.980598055826 -14.835746844617
0.98425703882793 14.936975521683
1.0373783018852 -12.933857464836
10.010733136806 -11.405264427003
9.9140256815795 11.416018860673
5.0598798070835 -4.9187778551982
1.0609804276984 10.005978073038
12.231063625638 5.4988601527887
14.297924205488 4.8738948243667
0.77144153285504 -6.5235102504874
1.0888544059927 -9.8514956860299
5.1016017665068 5.4608316257035
5.7076825067645 -5.3400081251943
4.048856476997 -3.0657227009556
12.972111232706 7.8595153938086
12.579805764404 -8.325423700223
3.4997844874723 4.0766599179862
4.8554399966672 -14.232116922428
9.9632500359784 2.6491859829061
4.9796865692402 -4.2936558688023
6.8724703965763 4.5223506700019
6.5186601297882 -9.1794668954593
2.1902931022666 -8.481140823486
5.7538097083798 13.90274852143
5.7526427760907 -13.953671622326
13.901067019535 -5.6808155205345
13.78194813916 5.7231528706324
12.744450749951 -0.047290227062815
9.520597794998 -3.4819011004849
6.1984033042542 8.4799137612395
3.5165476215808 -1.5673840438425
0.80050276561564 5.9763351291204
3.2978999683874 5.5532329596923
7.4912550723409 13.055916560506
7.3008629491072 -13.151144481261
3.9160515917603 14.477504044416
13.058961840409 -7.4398236669613
3.4068931918068 2.8564568949397
13.53323242182 7.3324232884962
14.491996875959 -3.5351016365559
14.40868087419 3.5402856932468
4.025833816493 13.436687778412
7.3492773251053 12.334073125109
4.0116581370633 -13.437714521451
6.4877275852781 -12.965453599888
1.7847423788978 11.062663331158
2.075078994449 -11.836871367915
7.7392976279069 -4.1871340782467
6.2945408364357 9.9191363408373
10.252491809274 -10.171234866749
7.8047719480564 -9.9477050511014
11.880776418237 -7.5293330777557
12.913319744502 -5.5885032910243
9.0332791304258 -1.2374606289114
3.5751231468577 -2.7396535148217
5.8702207152142 12.887452510293
10.728201900452 8.4274049918277
5.1936832783827 -9.4966190301141
10.555888832681 5.8033488629924
2.2347858994966 -9.7307620402869
9.7815274961956 10.236392838143
12.322750650264 -4.4744225843599
3.3116985065577 9.4476884594408
1.9688590122932 14.832391451688
1.0176599195451 -13.927201122328
1.0030923823745 13.925459190983
11.22069928487 9.6315437381698
11.456430969545 -10.001724052264
1.0062010195038 12.00365724567
14.977955732162 -0.026362773224257
9.6673703136844 3.5124797118993
4.7722544418206 -4.5699637664464
1.0764515612059 -10.908547491456
11.645076315915 8.1565738809138
9.01187647003 -11.926143919041
8.9998662354421 11.973460750334
2.9546775775184 -14.680781957731
5.9442250898801 -3.9676496648474
10.76688756568 -7.4227773318707
1.0851945156031 8.9517913405757
8.2826391977282 -2.9503453090792
1.928929497913 -7.0048975569453
9.1388205797983 -8.8619699519298
14.998368214602 2.0921546986553
15.026922798031 -2.1213998858493
13.92216348111 -0.059148662777914
10.113255730505 -4.5987868420374
6.2946660983193 5.437320293565
9.4393163638275 -0.22687085249218
12.194932813241 7.1138578177043
4.9809143646334 -13.194240917895
7.564375879779 8.6202234854178
5.1171494841981 -5.9014092508698
12.780934949271 1.2390735213917
11.477292637486 0.28309361800691
1.01217357002 -7.9519693333944
13.144546423077 4.6829203584106
6.1953517040764 7.0205788195325
4.0682826259509 5.6825788055582
5.8747906448938 -13.01957496108
4.9712818927933 13.210169230389
13.931004703653 1.1550577748358
10.333150392466 0.99981349909148
14.040549163393 2.3276635562315
13.575271781534 -3.7980635907
13.976773389951 -1.2893521851875
9.2564524066167 1.8146217139428
3.4397981899335 -0.7819582305512
6.694187626596 12.523571730226
9.3952592925911 -2.0116201257929
1.4033750309074 6.630774560368
13.305097130057 -4.5894076121036
12.413966906544 -6.4570153770826
3.023301868993 13.632454021271
4.1290156008254 12.404142743392
4.0833659044416 -12.357231473991
7.9509686686347 11.347163894587
6.7347690852789 -10.672636391924
4.184440897548 -4.9921970716133
2.0557818979416 -12.813197016168
2.0853248649653 12.073139904829
5.8072006900869 12.207081971219
5.2402104867693 -10.860128873702
4.5408148995895 -4.2367121346391
3.1652326772109 11.098573387205
7.1163249809039 -3.4583139038455
2.0516660292469 12.794648826664
10.782482944849 -8.7505063910828
6.907988029303 -12.405745451979
3.0196906280056 -13.645070210356
7.6159304981188 9.9341045222211
2.1416400617797 -10.832642527378
2.0119846255882 13.79810366407
3.6536742655295 -3.8673039048655
2.0212004038006 -13.808815681618
6.1520884226578 -12.063932581115
6.1623991240608 -6.5081006073948
8.7860021116132 10.815736793249
2.3082380008799 10.101536102166
8.7563095612102 -10.475583161339
6.5129830382517 -4.907462355934
11.804992944846 -8.1304264964192
5.2224793140584 12.226206182071
5.1381603283871 -12.107321909925
3.3361097839097 -5.2959529740414
4.5538929754315 -5.576789482135
12.198120912425 -5.3167185212137
1.9905548513165 7.8842862713971
5.1310157316021 11.297256538136
9.2938915454931 4.6229590425862
4.0891372251494 -4.3841703720459
14.126706662731 -2.4324169833344
8.4920265876765 9.9506141884179
2.9299336353344 -10.82486489509
3.0363710695807 -11.586401061703
3.0930112431628 12.564016990725
3.8872570647663 -3.386328713866
4.1973115103226 11.595204418424
6.5847447122951 -3.9691440579216
3.4455345305365 -4.3338606697462
2.0978023375422 8.7317448747504
3.0534990415327 -12.603437650709
6.411114817879 11.411594981853
7.6244158785801 -11.590904898077
4.0510913186245 -11.193989560822
10.315115153456 4.8548688290433
6.3759622021047 -7.8223527765616
6.8705074815345 -4.3161169937949
3.4333082242634 -3.3558172898092
0.473 1.90915
0.473 1.40915
0.473 2.40915
0.473 -1.89915
0.473 -1.39915
0.473 -2.39915
0.38572076642752 -6.7617551252437
0.38572076642752 -7.2617551252437
0.38572076642752 -6.2617551252437
5.9874897860241 -10.766382632813
6.6267146075335 -9.9260516436919
5.8561717040854 -9.3380429627867
5.216946882576 -10.178373951908
5.9218307450548 -10.0522127978
11.39347622916 5.6511045078905
10.435501993069 5.3291088460178
10.653507576728 4.4400344145216
11.611481812819 4.7620300763943
11.023491902944 5.0455694612061
3.3908221572231 -4.8149068218938
2.9457672652682 -3.9702803348731
2.8910548919549 -5.3554764870207
2.9184110786115 -4.6628784109469
3.7414465959034 2.7112284474698
2.9264465959034 2.3373784474698
3.246 1.68365
3.4937232979517 2.1974392237349
3.246 0.2715
3.246 0.977575
3.0581565560779 13.098235505998
3.6110134219941 12.484079867059
4.0774247086592 12.920415260902
3.524567842743 13.534570899841
3.5677906323685 13.00932538345
9.086138459296 -5.2481305628694
8.2603872732495 -4.3532476019928
7.5650488139535 -5.0820170391233
8.3255936366247 -5.1650738009964
2.9428990949667 -0.3859791152756
3.7533990949667 -0.6329791152756
3.4996995474834 -0.1807395576378
11.821624613506 -6.2177343063111
10.998084943073 -6.7006152837052
11.323831991958 -7.4760552048132
12.147371662391 -6.9931742274192
11.572728302732 -6.8468947555622
13.663670007676 6.2037673604698
12.870162344717 6.8991198340058
12.21299821944 6.3063589852465
13.006505882399 5.6110065117105
12.938334113558 6.2550631728582
2.0318253274176 13.296376245367
2.5723386362048 12.679332908695
2.5176432472906 13.71527884267
2.5449909417477 13.197305875682
9.886233378147 0.38647132329965
10.201158181914 -0.85523542624609
11.220146318743 -0.60025319099654
10.905221514976 0.6414535585492
10.553189848445 -0.10689093384845
7.5541192165008 5.0272667558813
8.5585149892473 4.4438462771744
9.2894957727465 5.2063795212931
8.4218074946237 5.1168231385872
9.9389922056539 8.6781625095208
10.974450592661 9.0294743649988
10.501113390533 9.9339682881565
9.4656550035257 9.5826564326786
10.220052798093 9.3060653988387
1.350185515384 -6.7642039037163
2.1874647489565 -6.2099487784726
0.85872076642752 -5.9692551252437
1.523092757692 -6.0896019518582
3.1291219601869 11.831295188965
3.6812720937668 11.346888902815
4.163163555574 11.999673580908
3.6461427578804 11.915484384937
4.7553639230477 -3.9144972186717
5.0590139230477 -4.0340972186717
4.9404569615238 -3.8888986093358
1.9246875154537 6.032887280184
1.1019388982615 6.3035548447442
0.87325138280782 5.7056675645602
1.3989694491308 5.8692774223721
3.8067738107904 -1.5336920219212
3.7372238107904 -2.0528920219212
3.9373619053952 -1.9779460109606
2.9812738107904 -1.6828420219212
3.0105615734289 -2.2689767574108
3.7665115734289 -2.6390267574108
3.3738926921096 -2.160934389666
9.7948013995416 1.4072176065172
10.662525196233 1.7625067495457
10.477575017989 2.5871929914531
9.6098512212976 2.2319038484245
10.136188208765 1.9972052989851
3.873483544683 -15.009428452962
3.4362970191417 -14.582284892419
2.9193790912705 -15.209350234443
3.3971973260896 -15.112957777176
5.0223508832534 6.1424658128517
5.698133932413 5.4490759596342
6.2450089011978 6.2289495565487
5.5692258520382 6.9223394097662
5.6336798922256 6.1857076847002
8.9620787379132 2.4216605633754
8.2858525346048 2.746349706404
8.7632262033084 1.7478108569714
8.5245393689566 2.2470802816877
2.9870067636354 14.158433051125
2.4597853352856 14.758401766334
1.9904218189407 14.315247557879
2.4887142912881 14.236840304502
3.545324651819 -9.0051753804082
2.7621465511333 -8.348820411743
2.2125395008816 -9.1059514318865
2.9957176015673 -9.7623064005517
2.8789320763503 -9.0555634061473
8.2454217511056 3.6467164622852
9.167537691447 3.2705895623536
9.4806309295888 4.0677193772428
8.8630263403472 3.857217919764
7.5852999599233 -8.2071622428482
8.4593102498225 -8.8996972188131
9.2648102898992 -8.1694349759649
8.4250551249113 -8.1882986094065
13.949468435531 -0.67425042398271
13.333307115531 -0.053219444920364
12.853725374975 -0.76544511353141
13.469886694976 -1.3864760925937
13.401596905253 -0.71984776875706
9.8153101748314 3.0808328474027
9.3886944563723 2.751246705389
9.151037356795 -4.0006311131119
8.9016184963631 -3.2161232047821
8.0109684128176 -3.5687396936629
8.5810028848063 -3.7846854033874
4.7415584624568 9.1594269459363
3.9258577157356 9.7212211756567
3.1273992532789 8.8858942297204
3.9344788578678 9.0226605878284
10.07884378284 -7.4498386659354
9.9606517623239 -8.8062381715063
10.774685255265 -8.0866418614768
10.019747772582 -8.1280384187208
4.4751662910103 -9.6452348954653
5.2638416391913 -8.8565595150571
4.4045831455052 -8.9308674477326
9.2174412554279 8.109360013607
9.9692873294895 7.2192583350347
10.690838279716 7.7880608309486
9.9541397675717 7.9487104222778
6.8833811010524 -7.6496263882808
6.4473111659465 -8.5009098360104
7.1492300248174 -9.0584456905779
7.0163055629349 -8.3540360394293
5.8549811010524 -8.0194263882808
5.8555764025689 -8.6787346755338
9.7520278652525 -5.2878434210187
9.8169267627515 -4.0403439712611
9.4515326110238 -4.6442372670653
11.038785583882 -3.7425930774091
11.718660909014 -4.4880043695891
12.642875325132 -3.72901129218
11.840830454507 -3.7358021847945
8.3570791953174 8.7745717563159
7.4247379398895 7.9550117427089
8.3210895976587 8.0321858781579
5.1767475228303 11.761731360103
4.6757474574419 12.315174462732
4.6641636209624 11.44623047828
4.6699555392021 11.880702470506
8.9475650705043 -9.6687765566346
7.7922859339515 -9.4425647683989
8.2805407546333 -10.21164410622
8.3699255022279 -9.5556706625168
2.1882129806382 -10.281702283832
2.5357868485571 -10.828753711234
3.3432914694862 -10.309357827953
2.7657522250622 -10.295530055893
3.8119898119274 -2.9026881078886
4.1872782384985 -2.8585613504778
3.9768949059637 -2.7487940539443
10.241798897499 -3.2327505502424
10.613913449134 -4.5501864984278
10.427856173317 -3.8914685243351
1.6238897753961 -8.6286027371733
1.0731704272592 -9.3137801684452
1.6618201527446 -9.7911288631584
1.6428549640704 -9.2098658001658
7.1810417432569 11.37937943822
6.3528278271574 10.665365661345
6.9552356672773 9.9266204315292
7.7834495833768 10.640634208404
7.0681387052671 10.652999934875
3.8526248010622 10.546663639539
2.7367353390454 10.600054744686
2.8099682537188 9.7746122808036
3.3312965273905 10.160637960171
3.5156743825345 -13.541392365903
2.987184102762 -14.162926084043
3.9647872989142 -13.960751174279
3.4759857008381 -14.061838629161
12.110871693718 0.11790169547205
12.036935846859 -0.68284915226398
11.405826143271 1.893168396209
12.300343617907 1.2501051569049
12.886417474636 1.8821367606959
12.146121808953 1.8876525784524
4.6456509026969 -11.027059217262
3.9038703111312 -10.493920160819
4.5604085968536 -10.336147056364
3.1204999841937 6.1886664798461
2.1732375154537 6.727437280184
2.8719499841937 5.4941164798461
2.5225937498237 6.1107768800151
10.310041160233 -5.9776766177698
11.171926744115 -5.2400196951789
10.461977304684 -5.2639315580988
11.186639108184 8.2919894363708
11.943617863041 8.3929890205198
11.731429347519 9.1304739491478
11.459034227851 8.7112316927593
7.7828195988641 -2.6036726545396
7.199662490452 -2.8576569519228
7.4278113044054 -3.8227239910461
7.6053154516348 -3.2131983227929
5.9211243532135 -3.6031688784093
6.2617743532135 -3.4622188784093
6.0474621766068 -3.4332844392047
11.713701616446 -5.6475858783766
12.260435781345 -4.8955705527868
11.71618126273 -5.0677951239829
5.5707516521271 8.4020068806197
6.246472070345 9.1995250510384
5.4172788806746 9.956945116355
5.4940152664009 9.1794759984873
7.5901531889489 9.2771640038195
8.8209045492661 9.4397671078159
8.0539785428976 9.9423593553195
8.2055288691075 9.3584655558177
1.9487229481892 15.357866718628
2.9173961316502 15.211165296067
2.433608693841 15.288124180827
11.648522462014 0.77211520521249
11.155523829124 1.2673109773791
3.5684324729872 -12.48033456235
4.067228611533 -11.775610517407
3.5437311941026 -11.390195311262
3.0449350555567 -12.094919356206
3.5560818335449 -11.935264936806
13.355969826462 1.1970656481138
12.762692849611 0.59589164716445
13.926584092382 0.54795455602896
13.344638470996 0.5719231015967
4.8355163282578 10.646005215004
4.2583942110123 10.996447058909
5.7710652747406 11.354425759994
5.5941720777076 10.655685438175
6.8813895920166 8.5500686233286
6.9183126296469 9.2383445274289
13.985776933523 1.7413606655336
13.516224581696 2.4264317781157
13.436097204079 1.8117487131148
10.179129646296 -1.7476100628964
9.4579285437946 -2.7467606131389
10.210464271897 -2.4901803065694
7.7001624270197 -12.846944081931
7.8619388917562 -12.066824290339
7.2662019539415 -11.998325175028
7.1044254892051 -12.77844496662
7.4831821904806 -12.42263462848
1.4877335021147 -14.886736020465
0.98046245357997 -15.454267031943
1.9545924699556 -15.359544415093
1.4678577576944 -15.410540471169
2.5546404697372 -12.708317333438
2.5557250320148 -11.711636214809
2.0654304461953 -12.325034192041
2.555182750876 -12.209976774124
1.0826529835993 -10.380021588743
1.6090458114928 -10.870595009417
1.6354329821187 -10.330861936288
10.329635156842 3.7688398559497
10.403605087416 3.1780164237014
2.6314647489565 -6.8606987784726
2.0596113000898 -7.7430191902156
2.6968056500449 -7.6047595951078
0.97515649879225 15.453892194628
1.4765580255606 14.884683486685
1.4622700194174 15.409514204279
3.9167871327647 -3.8760019524328
3.549604398033 -4.1005822873059
3.7673358778429 -4.3590155208961
4.1345186125747 -4.1344351860229
3.8420615053038 -4.1175087366644
12.555720328463 -5.452610906119
13.10920843728 -5.0889554515639
12.813923890161 -4.5319150982317
12.684822109312 -4.9922630021754
10.194442471537 -6.7137576418526
13.544853331365 -2.7080084916672
14.051740026341 -1.860884584261
13.50737001317 -2.0472422921305
2.5204455159031 -13.726942945987
3.0365948347692 -13.124253930532
2.0384911508711 -13.311006348893
2.5375429928202 -13.217630139713
11.920004564578 7.6352158493091
11.42420373611 7.1312872438869
11.305421422147 7.7116383401288
13.700290437095 3.7827428466234
14.224615018791 2.9339746247391
13.608257509396 3.1045873123696
5.7581125449401 -3.9318248324237
6.0511368981536 -3.823743710833
5.8396184490768 -3.7674968554165
9.9204944163407 5.7965744314962
10.60468174583 6.4760327665309
9.9448908729151 6.5079163832655
6.5526512222375 11.96758335604
7.65012299687 11.840618509848
7.0217324758507 12.428822427668
7.1013871095538 11.904100932944
0.49743447420167 -14.968862598157
0.49034145950795 -15.480781574995
0.49212851941396 14.968487760842
0.48768848211409 15.480594156337
3.6830912971692 5.6179058826253
3.3988422279298 4.8149464388393
3.8888836751649 4.5352108829893
4.1731327444043 5.3381703267753
3.785987486167 5.0765583828073
6.1968775041653 7.750246290386
5.5699887520826 7.662173145193
7.2697705166676 -10.310170721513
7.2095002707425 -9.6843082060454
6.8505348465995 -3.7137289808835
6.7276260969148 -4.1426305258582
7.3049025547207 -4.2516255360208
7.0777187006601 -3.9826772584522
0.99367471060124 14.431217356333
0.50154619118728 13.962729595491
0.49683735530062 14.465608678167
0.50882995977254 -13.963600561164
1.0062644339742 -14.432463159321
0.50313221698711 -14.466231579661
4.0475120207525 -12.897472997721
3.5420534277608 -13.010863464127
1.5075385039814 13.861781427526
1.492048264771 14.373232457106
3.3350548919549 -6.0062264870207
2.7612598204557 -6.1080876327467
12.025683329645 -9.9346130071604
11.226450726666 -10.493327080957
11.486321227262 -10.797446320752
11.758805987655 -10.368366264179
1.5457629422345 12.03839857525
1.008850636423 11.518553701721
1.39812131612 11.048056744465
1.9350336219316 11.567901617994
1.4719421291773 11.543227659858
0.5088747969268 12.978037529863
1.0104209881141 13.440767125355
0.50521049405704 13.470383562677
1.0119753066787 12.479866152698
0.50310050975191 12.001828622835
0.50598765333935 12.489933076349
2.0008992298133 -14.322281263117
1.5194301616729 -13.868008401973
1.5035818318938 -14.377372211219
3.4781729057571 -1.1746711371968
2.9620864528786 -1.0344105685984
3.7800864528786 -1.0833355685984
1.0275191107151 -13.430529293582
0.51868915094261 -12.966928732418
0.51375955535757 -13.465264646791
2.4676378166722 -14.758264401174
2.4375349345344 -15.288055498247
12.205607655813 0.68400342618847
9.8045033494746 4.7389139358148
9.8624988829076 5.2677441836555
5.1891854075782 -11.483725391814
5.6451243755225 -12.08562724552
6.4434287539683 -11.36828448652
5.8163070807733 -11.426004939167
8.5556691874811 -12.234443800822
8.8840930156201 -11.20086354019
8.1903627198951 -11.033244029708
8.3730159536881 -11.633843915265
9.9391175494314 -12.000100058374
9.511304803418 -11.665704173022
9.0504562088642 -12.54694288667
9.4969499326211 -12.276461146919
8.8929341735276 11.394598771791
9.2837648039044 10.526064815696
9.8477765888876 10.826205849408
9.4569459585108 11.694739805503
9.3703553812076 11.1104023106
4.2579282384985 -3.1729113504778
4.3370391192493 -2.9845556752389
0.70168751545369 6.815387280184
0.40025138280782 5.9881675645602
0.55096944913075 6.4017774223721
0.52738350949205 -11.968676323345
1.065609290095 -11.422950069073
0.53822578060296 -10.954273745728
0.53280464504751 -11.461475034537
6.7402258520382 7.1551894097662
6.7898830491597 5.6135601467825
6.7650544505989 6.3843747782744
1.5347078115502 12.875361943195
1.5211231577658 13.368571685361
11.446163964972 10.774146859067
11.068427622038 10.284937462225
11.907817487307 9.7495228501132
11.679794435341 10.264171454813
2.4940416662877 -14.24260367358
1.5465800999134 -12.873527240502
1.5330051307931 -13.370767821237
1.6846092142892 10.053757087602
2.0464901898889 10.582099716662
1.0362403405203 10.519714115405
1.5413652652046 10.550906916034
8.8726581819137 -0.32393542624609
9.2212751207219 0.26483315693322
8.6991169388082 0.69476858317932
8.785887560361 0.18541657846661
1.5649230067165 -11.887112007303
1.0460726604347 -12.435605055763
1.555751553315 -12.380319623902
0.52303633021733 -12.467802527882
6.7765995620304 -6.2425003036974
6.2691806630828 -7.1652266919782
6.8299903315414 -6.9460633459891
5.7481995620304 -6.6123003036974
5.8015903315414 -7.3158633459891
4.9224072076678 -4.1883251530728
5.1261932846201 -4.2786279344011
5.0926036038339 -4.1563625765364
3.9709427041267 13.957095911414
3.4333816250191 14.580958062698
3.4789747338811 14.05776448127
3.8725511101806 15.006286561617
3.3957396290283 15.112294362316
0.50575012667107 11.016725078886
0.50442531821149 11.509276850861
11.385439231914 -8.9088467975022
10.517487377062 -9.4608706289161
10.854461389409 -10.086479459507
11.722413244262 -9.5344556280929
11.119950310662 -9.4976631285045
2.9728922437361 3.8516799589931
2.9224211139649 4.6728982194196
8.419779326128 -2.5522476974244
8.2279597272639 -1.7480750428847
8.005389663064 -2.1758738487122
2.0684954471061 12.433894365747
1.5402353768924 12.456880259223
15.471901461091 1.0179541124134
14.975474893386 0.52174474642294
15.488977866081 -0.013181386612127
15.484087722609 0.50249659561858
0.473 5.2175
0.43662569140391 5.6028337822801
10.503601810296 -11.195097268327
10.80321650782 -11.480551040194
10.373503628848 -11.743129258486
4.8077444291752 -14.753825393283
4.3866782287161 -14.357952374768
4.3415940541531 -14.885142595764
9.2362977471267 -0.73216574070179
9.2142692115085 -1.6245403773521
9.7077136967111 -1.2398879017991
10.763059245529 11.457251578509
9.8907638218181 12.005477275209
10.415090820393 11.177175023477
10.329248133896 11.734168136061
9.0444510915703 12.570601302316
8.2349632394427 13.118857251907
8.5961938437425 12.259337448663
8.6416887794831 12.84779419015
0.54442720299634 -9.9257478430149
0.54132649179965 -10.440010794372
6.8108077220274 7.8526290165474
2.2030201692111 9.4166404884584
1.0730874716508 9.4788847068069
1.5914984265727 8.841768107663
1.6380538204309 9.4477625976326
5.0028008832534 5.0864158128517
6.0238330491597 4.9846601467825
5.5133169662065 5.0355379798171
0.53049021384922 10.002989036519
0.54259725780156 8.9758956702879
0.53654373582539 9.4894423534034
11.229237505887 -11.226352412353
9.4697705101675 12.290978963159
11.209158874742 11.214702681511
0.50608678501002 -7.9759846666972
0.52874322426286 -8.8880323254303
1.0348300092729 -8.3640169921275
0.51741500463644 -8.4320084960637
2.1083595281144 -11.334756947646
1.5869844091047 -11.37885350836
12.704950632233 8.8592200539122
12.309323734167 9.306534505486
8.0717450603388 11.946189020789
7.8418882621919 12.800565353749
7.4202661987231 12.694994842808
7.746005629531 12.320591931798
4.9181771806503 -13.713178920162
4.4962862508484 -13.315977719673
4.4414822397822 -13.83696504722
12.578068686639 -9.0781115758101
12.304815682539 -9.5085253449586
4.9128736073887 13.71628846051
4.3852584568722 14.349955867524
4.4985578546431 13.3234285044
4.4419081557577 13.836692185962
10.067069253158 4.2538768958822
9.1298431421165 1.2855794401507
8.7311715710583 1.2212897200754
3.5434912448964 -3.6115605973374
2.9396541121317 -3.4812586449046
3.2446292550823 -3.7909204661052
2.9831523524575 -11.205632978397
2.545755940286 -11.270194963021
10.13161247304 -10.788249646876
10.679031599853 -10.640788363917
9.504400685242 -10.323409014044
9.50785274433 -10.994556593533
10.458102105463 10.555571655817
7.0533454476709 13.297869574343
6.6548117247985 13.031697159203
7.0375389617608 12.863346001005
2.6252787710881 11.585856646017
2.3358844804885 11.08397818134
6.6978578072905 -12.685599525934
6.5770613719831 -13.28156514229
6.9836290538977 -13.374410582977
6.8407434305941 -13.030005054455
4.8072570918337 14.748970777384
4.3408841682311 14.881144342142
14.984079931211 -0.57034012815726
15.480506498916 -1.0401867209234
15.488390241522 -0.52679428648574
5.7131604843856 -14.456965752646
5.3040413863789 -14.092894272377
5.2616430069564 -14.608845656466
0.58822133052714 7.9532577685567
1.1308185883287 8.4291534388445
0.56540929416435 8.4645767194223
1.2899088459808 7.2686450487407
0.64495442299041 7.3843225243703
7.4634129125206 13.611606485479
7.850981019767 13.368410836838
12.192399354625 -8.2279250983211
12.819383802406 -7.8826236835922
12.469869129323 -7.4845783723585
11.842884681542 -7.8298797870875
12.331134241974 -7.8562517353398
8.9760893735595 -2.0828851057812
8.9388539349613 -2.6495041552816
3.9439464877157 -6.1466447410675
4.3691669364897 -5.2844932768742
3.7602753407288 -5.1440750228274
3.8521109142223 -5.6453598819475
8.1884334658874 -13.117622019713
7.3682168509037 -13.659220445856
7.7801181021809 -13.39160020093
15.4551323918 -2.0249933849672
15.008563464145 -1.6178586844698
15.471454193009 -1.532920348872
8.6214264513524 -12.83534736623
6.5910203551225 14.065110062026
7.0288143651582 13.841639697295
0.51812017026015 10.509857057703
4.3149760623694 -4.3104412533425
4.1367890613487 -4.6881837218296
4.4783476696843 -4.7810804190299
4.656534670705 -4.4033379505428
4.3966618660269 -4.5457608361862
1.5834987561854 7.8954009042552
2.0441785944294 8.3080155730737
1.587498591379 8.3685845059591
6.6165000229661 -14.094037110283
6.9939561682716 -13.879910201612
3.4435113317944 -10.849776569608
3.5042156855605 -3.0477354023154
3.6602826445148 -3.3710730018376
3.9680567708816 -3.2260257074108
3.7361362282211 -3.1368805548631
5.4278525047636 -13.106907939488
5.8137167104922 -13.486623291703
5.3659469455713 -13.599901105932
14.309351769345 -2.9837593099452
13.269135890767 -3.39083179535
14.033634328747 -3.6665826136279
13.789243830056 -3.1872955526476
5.812015211797 13.395100515862
5.304137515182 14.062578106031
5.4207513040037 13.048810870341
5.3624444095928 13.555694488186
6.1812591150859 -12.992514280484
6.2095189673894 -13.775674153509
6.1953890412377 -13.384094216997
6.1846227656904 13.721285554805
6.2822041709051 12.70551212026
6.2334134682977 13.213398837532
6.5300382259804 -12.234839016547
6.0134395337758 -12.541753771097
6.3556486705332 -12.613676648516
6.1662269426154 -14.278873336845
8.6390143496448 10.383175490833
9.0523346765853 9.9829159617559
6.7297351982881 4.2081753350009
6.5835682474478 4.9798354817834
6.3767841237239 4.5964177408917
13.274175210728 -7.0109077069465
12.951677743796 -6.5195035620072
12.71077343656 -7.0020409671828
7.1795924819295 -11.131770645001
7.7300666182814 -10.67170737561
12.583522022974 7.4866866057565
13.539312149006 7.0084025694017
13.252671827263 7.5959693411524
13.06141708599 7.2475445875791
5.8387107026505 12.547267240756
6.109157753983 11.809338476536
6.195680962444 12.257425298398
0.5365852136296 -9.4068900842226
5.7137439505302 14.431504202199
6.1537788417659 14.251679037493
15.410803071793 2.8578338200978
15.041027923517 2.4618708669143
15.440855100085 2.0103707913703
15.429437259419 2.4346514596554
5.2616910713579 14.593687573293
13.61312912543 -7.4376972098308
13.136153060614 -8.3014143635327
13.377820061167 -7.8713487304671
4.8068863912575 -5.2477836686666
4.8355212298148 -5.7390993665024
5.4124159954813 -5.620708688032
5.383781156924 -5.1293929901962
5.1096511933694 -5.4342461783493
2.4668274256583 7.3541931356985
1.8783681358195 7.3114190922196
4.8759705055304 -4.4318098176243
4.9160671244521 -4.7443708108223
5.1662899035418 -4.5911889275991
5.0211302045361 -4.5114993726117
12.687805024358 5.0908902555996
13.721235314283 4.7784075913886
14.039936172324 5.2985238474995
13.363870598341 5.1947070515496
12.607135321437 8.2444597769672
13.332305794765 8.0684602103256
13.021693126538 8.4658217460954
14.039893058461 -6.5742983170879
13.829792515488 -7.007595494796
13.850264416136 7.3839970205982
13.594464073596 7.7280215592472
12.284100641692 -8.6963054520723
12.860175786665 -8.691744583648
14.450059606636 -0.042755718001086
14.451999379132 1.112455020453
14.451029492884 0.53484965122595
13.695227800291 -6.1314036337331
13.407193382018 -5.6346594057794
12.663643325523 -6.0227593340535
13.179435562907 -6.0770814838933
11.293737944848 -8.440466443751
11.78891929327 -8.5683859479117
14.067894706033 6.6254933687757
13.962360984627 7.0063429260236
14.985681134606 1.5810034823627
15.46001302824 1.5144927478185
4.6107631164144 -12.232276691958
4.6282070095556 -11.62966795461
8.368485390124 11.081450343918
8.4823396169332 11.67039389629
5.0595373465103 -12.65078141391
4.5535246836314 -12.774127205816
13.440184455796 -4.1937356014018
13.773530345891 -4.6591455609776
14.366980218842 -4.1319925732037
13.903582337319 -4.1628640873028
5.0968806034258 12.71818770623
4.5871526560425 12.819301483566
1.4705515339665 -7.4784334451698
0.92813615019703 -7.3700942852068
14.746184253311 3.18593636421
14.519458688997 2.2099091274434
14.632821471154 2.6979227458267
14.353302539839 4.2070902588067
13.068223211539 4.3540601792053
13.710762875689 4.280575219006
5.536488440143 -12.596267592504
4.6426170304709 -5.0144320438482
14.430663451251 -5.6772468566075
14.238650160236 -6.1271692757873
14.07151529063 -5.204849515193
13.590361863955 -5.1469024833785
5.5148400020726 12.216644076645
5.6429526384066 11.78553491832
5.4677956530382 12.632727473493
8.4661395652129 -1.2897303144557
8.6693988735633 -0.8068328703509
1.5472206546813 -8.0535180911716
2.5204511687711 8.5279224373752
2.4936392972147 7.9410577865369
14.371104011063 5.6984155316565
14.222871263929 6.1633511391556
6.0312184626695 -4.1355157934823
6.351478273877 -4.1362629900193
6.3713967093611 -3.8244909073701
6.2013075860153 -3.9800033504262
4.5163074497947 -4.0729560673196
4.3254130311847 -4.1036956266713
14.576814730381 -2.2769084345919
14.483488760105 -1.2018348341389
14.530151745243 -1.7393716343654
15.421957544231 -2.8589194868878
14.798996726633 -3.1844300026545
15.013532977388 -3.6820761325784
15.221313694283 -3.271263817846
14.971874976503 3.6846681609239
15.194907457622 3.2720169986238
15.066459687669 -2.4775791273013
15.442153141495 -2.4425055898489
14.758748712931 -4.7444661857674
14.598156165592 -5.2120470713635
14.889656517801 -4.2142512263969
8.2112319665108 10.511904849619
14.466774183371 -0.62229527606998
4.5056913129755 6.2533394027791
4.6897923146822 5.2272967368479
4.5977418138288 5.7403180698135
14.786729034812 4.816971843025
14.882817678299 4.2518000691984
3.4533388396396 3.466558406463
2.9496694198198 3.0945292032315
4.2944914314288 4.6588809239962
4.6486461573411 4.872648368424
14.582366606439 5.2588842375167
2.5988087036465 12.132594777356
14.687905728507 -2.7306692186232
3.8128922437361 3.8293299589931
4.0536918375825 4.2441054414946
7.6115692165008 3.7218667558813
7.3478044147889 4.3935420908822
7.1706522073945 3.9650210454411
4.0335785323831 -3.635514356933
3.7885348886398 -3.6235374771352
11.308784968403 -7.9582608242821
9.5080382601317 0.83602538172519
8.7211144693862 -1.6863077101184
3.7771694198198 3.2702792032315
7.0688437319743 5.0035511188323
14.485729034064 1.6611820739482
2.665209711245 9.1512673590894
5.225574742099 -6.3089546254349
5.9350408154126 -5.9240543662945
5.5803077787558 -6.1165044958647
3.7638056092859 -4.7515452718617
13.041529890464 -3.9613734467909
12.188672470984 -5.8351726062151
0.473 -5.2075
0.473 -3.80335
0.473 -4.505425
0.473 -3.10125
0.473 0.0049999999999996
0.473 -0.697075
0.473 0.707075
0.473 3.81335
0.473 4.515425
3.8130956485846 6.2210029413126
4.5847606149074 -6.2277996832512
6.740912490452 -3.3514569519228
6.757956245226 -3.0014784759614
7.9487108755528 3.2341082311426
4.1457533854408 -3.4042128537054
4.7029713728424 -4.1598532859912
4.6358356864212 -3.9937266429956
5.8416059177295 -4.4296409610586
5.7998592313348 -4.1807328967411
6.1103327725081 -5.1237352405641
6.3155974368553 -4.6054221390255
5.6363412533823 -4.9479540625971
5.9759693451188 -4.7766881008113
5.401315578462 -4.7695714950981
6.5561545999065 -3.5879739296464
0.42936038321376 -5.7346275626219
2.9751078427803 -2.8751177011577
0.473 3.11125
12.339852512179 4.5580451277998
4.7894709391864 -4.2958315518078
11.408839982635 6.3911958758887
6.9518915191259 -5.442181177967
6.4434661672692 -5.6831177721307
12.263569943007 7.9398378131381
6.6917452598931 -4.6117896748644
7.1283970369233 -4.8469033569939
9.732526223783 -9.5648235927753
6.8548153539549 -11.683304830774
6.521611766885 -4.3740263324419
0.31533333333333 1.6061
0.31533333333333 2.2727666666667
0.31533333333333 -1.5994333333333
0.31533333333333 -2.2661
0.25714717761835 -7.1745034168291
0.25714717761835 -6.5078367501625
