MFEM mesh v1.0

#
# MFEM Geometry Types (see mesh/geom.hpp):
#
# POINT       = 0
# SEGMENT     = 1
# TRIANGLE    = 2
# SQUARE      = 3
# TETRAHEDRON = 4
# CUBE        = 5
# PRISM       = 6
# PYRAMID     = 7
#

dimension
2

elements
1200
1 3 0 1 42 41
1 3 41 42 83 82
1 3 42 43 84 83
1 3 1 2 43 42
1 3 2 3 44 43
1 3 43 44 85 84
1 3 44 45 86 85
1 3 3 4 45 44
1 3 4 5 46 45
1 3 45 46 87 86
1 3 86 87 128 127
1 3 127 128 169 168
1 3 126 127 168 167
1 3 85 86 127 126
1 3 84 85 126 125
1 3 125 126 167 166
1 3 124 125 166 165
1 3 83 84 125 124
1 3 82 83 124 123
1 3 123 124 165 164
1 3 164 165 206 205
1 3 165 166 207 206
1 3 166 167 208 207
1 3 207 208 249 248
1 3 206 207 248 247
1 3 205 206 247 246
1 3 246 247 288 287
1 3 287 288 329 328
1 3 288 289 330 329
1 3 247 248 289 288
1 3 248 249 290 289
1 3 289 290 331 330
1 3 290 291 332 331
1 3 249 250 291 290
1 3 250 251 292 291
1 3 291 292 333 332
1 3 292 293 334 333
1 3 251 252 293 292
1 3 210 211 252 251
1 3 209 210 251 250
1 3 208 209 250 249
1 3 167 168 209 208
1 3 168 169 210 209
1 3 169 170 211 210
1 3 170 171 212 211
1 3 171 172 213 212
1 3 212 213 254 253
1 3 211 212 253 252
1 3 252 253 294 293
1 3 293 294 335 334
1 3 294 295 336 335
1 3 253 254 295 294
1 3 254 255 296 295
1 3 295 296 337 336
1 3 296 297 338 337
1 3 255 256 297 296
1 3 214 215 256 255
1 3 213 214 255 254
1 3 172 173 214 213
1 3 173 174 215 214
1 3 132 133 174 173
1 3 91 92 133 132
1 3 90 91 132 131
1 3 131 132 173 172
1 3 130 131 172 171
1 3 89 90 131 130
1 3 88 89 130 129
1 3 129 130 171 170
1 3 128 129 170 169
1 3 87 88 129 128
1 3 46 47 88 87
1 3 5 6 47 46
1 3 6 7 48 47
1 3 47 48 89 88
1 3 48 49 90 89
1 3 7 8 49 48
1 3 8 9 50 49
1 3 49 50 91 90
1 3 50 51 92 91
1 3 9 10 51 50
1 3 10 11 52 51
1 3 11 12 53 52
1 3 12 13 54 53
1 3 53 54 95 94
1 3 52 53 94 93
1 3 51 52 93 92
1 3 92 93 134 133
1 3 133 134 175 174
1 3 134 135 176 175
1 3 93 94 135 134
1 3 94 95 136 135
1 3 135 136 177 176
1 3 136 137 178 177
1 3 95 96 137 136
1 3 96 97 138 137
1 3 137 138 179 178
1 3 138 139 180 179
1 3 97 98 139 138
1 3 56 57 98 97
1 3 55 56 97 96
1 3 54 55 96 95
1 3 13 14 55 54
1 3 14 15 56 55
1 3 15 16 57 56
1 3 16 17 58 57
1 3 57 58 99 98
1 3 58 59 100 99
1 3 17 18 59 58
1 3 18 19 60 59
1 3 19 20 61 60
1 3 60 61 102 101
1 3 59 60 101 100
1 3 100 101 142 141
1 3 101 102 143 142
1 3 142 143 184 183
1 3 141 142 183 182
1 3 140 141 182 181
1 3 99 100 141 140
1 3 98 99 140 139
1 3 139 140 181 180
1 3 180 181 222 221
1 3 221 222 263 262
1 3 222 223 264 263
1 3 181 182 223 222
1 3 182 183 224 223
1 3 183 184 225 224
1 3 224 225 266 265
1 3 223 224 265 264
1 3 264 265 306 305
1 3 265 266 307 306
1 3 306 307 348 347
1 3 305 306 347 346
1 3 304 305 346 345
1 3 263 264 305 304
1 3 262 263 304 303
1 3 303 304 345 344
1 3 302 303 344 343
1 3 301 302 343 342
1 3 300 301 342 341
1 3 259 260 301 300
1 3 260 261 302 301
1 3 261 262 303 302
1 3 220 221 262 261
1 3 179 180 221 220
1 3 178 179 220 219
1 3 219 220 261 260
1 3 218 219 260 259
1 3 177 178 219 218
1 3 176 177 218 217
1 3 217 218 259 258
1 3 216 217 258 257
1 3 175 176 217 216
1 3 174 175 216 215
1 3 215 216 257 256
1 3 256 257 298 297
1 3 257 258 299 298
1 3 258 259 300 299
1 3 299 300 341 340
1 3 298 299 340 339
1 3 297 298 339 338
1 3 338 339 380 379
1 3 339 340 381 380
1 3 340 341 382 381
1 3 381 382 423 422
1 3 380 381 422 421
1 3 379 380 421 420
1 3 420 421 462 461
1 3 461 462 503 502
1 3 462 463 504 503
1 3 421 422 463 462
1 3 422 423 464 463
1 3 463 464 505 504
1 3 464 465 506 505
1 3 423 424 465 464
1 3 424 425 466 465
1 3 465 466 507 506
1 3 466 467 508 507
1 3 425 426 467 466
1 3 384 385 426 425
1 3 383 384 425 424
1 3 382 383 424 423
1 3 341 342 383 382
1 3 342 343 384 383
1 3 343 344 385 384
1 3 344 345 386 385
1 3 385 386 427 426
1 3 386 387 428 427
1 3 345 346 387 386
1 3 346 347 388 387
1 3 347 348 389 388
1 3 388 389 430 429
1 3 387 388 429 428
1 3 428 429 470 469
1 3 429 430 471 470
1 3 470 471 512 511
1 3 469 470 511 510
1 3 468 469 510 509
1 3 427 428 469 468
1 3 426 427 468 467
1 3 467 468 509 508
1 3 508 509 550 549
1 3 549 550 591 590
1 3 550 551 592 591
1 3 509 510 551 550
1 3 510 511 552 551
1 3 511 512 553 552
1 3 552 553 594 593
1 3 551 552 593 592
1 3 592 593 634 633
1 3 593 594 635 634
1 3 634 635 676 675
1 3 633 634 675 674
1 3 632 633 674 673
1 3 591 592 633 632
1 3 590 591 632 631
1 3 631 632 673 672
1 3 630 631 672 671
1 3 629 630 671 670
1 3 628 629 670 669
1 3 587 588 629 628
1 3 588 589 630 629
1 3 589 590 631 630
1 3 548 549 590 589
1 3 507 508 549 548
1 3 506 507 548 547
1 3 547 548 589 588
1 3 546 547 588 587
1 3 505 506 547 546
1 3 504 505 546 545
1 3 545 546 587 586
1 3 544 545 586 585
1 3 503 504 545 544
1 3 502 503 544 543
1 3 543 544 585 584
1 3 584 585 626 625
1 3 585 586 627 626
1 3 586 587 628 627
1 3 627 628 669 668
1 3 626 627 668 667
1 3 625 626 667 666
1 3 624 625 666 665
1 3 583 584 625 624
1 3 582 583 624 623
1 3 623 624 665 664
1 3 622 623 664 663
1 3 581 582 623 622
1 3 580 581 622 621
1 3 621 622 663 662
1 3 620 621 662 661
1 3 579 580 621 620
1 3 538 539 580 579
1 3 497 498 539 538
1 3 498 499 540 539
1 3 539 540 581 580
1 3 540 541 582 581
1 3 499 500 541 540
1 3 500 501 542 541
1 3 541 542 583 582
1 3 542 543 584 583
1 3 501 502 543 542
1 3 460 461 502 501
1 3 459 460 501 500
1 3 458 459 500 499
1 3 417 418 459 458
1 3 418 419 460 459
1 3 419 420 461 460
1 3 378 379 420 419
1 3 337 338 379 378
1 3 336 337 378 377
1 3 377 378 419 418
1 3 376 377 418 417
1 3 335 336 377 376
1 3 334 335 376 375
1 3 375 376 417 416
1 3 374 375 416 415
1 3 333 334 375 374
1 3 332 333 374 373
1 3 373 374 415 414
1 3 414 415 456 455
1 3 415 416 457 456
1 3 416 417 458 457
1 3 457 458 499 498
1 3 456 457 498 497
1 3 455 456 497 496
1 3 454 455 496 495
1 3 453 454 495 494
1 3 412 413 454 453
1 3 413 414 455 454
1 3 372 373 414 413
1 3 331 332 373 372
1 3 330 331 372 371
1 3 371 372 413 412
1 3 370 371 412 411
1 3 329 330 371 370
1 3 328 329 370 369
1 3 369 370 411 410
1 3 410 411 452 451
1 3 411 412 453 452
1 3 452 453 494 493
1 3 451 452 493 492
1 3 492 493 534 533
1 3 533 534 575 574
1 3 534 535 576 575
1 3 493 494 535 534
1 3 494 495 536 535
1 3 535 536 577 576
1 3 536 537 578 577
1 3 495 496 537 536
1 3 496 497 538 537
1 3 537 538 579 578
1 3 578 579 620 619
1 3 619 620 661 660
1 3 618 619 660 659
1 3 577 578 619 618
1 3 576 577 618 617
1 3 617 618 659 658
1 3 616 617 658 657
1 3 575 576 617 616
1 3 574 575 616 615
1 3 615 616 657 656
1 3 656 657 698 697
1 3 657 658 699 698
1 3 658 659 700 699
1 3 699 700 741 740
1 3 698 699 740 739
1 3 697 698 739 738
1 3 738 739 780 779
1 3 779 780 821 820
1 3 780 781 822 821
1 3 739 740 781 780
1 3 740 741 782 781
1 3 781 782 823 822
1 3 782 783 824 823
1 3 741 742 783 782
1 3 742 743 784 783
1 3 783 784 825 824
1 3 784 785 826 825
1 3 743 744 785 784
1 3 702 703 744 743
1 3 701 702 743 742
1 3 700 701 742 741
1 3 659 660 701 700
1 3 660 661 702 701
1 3 661 662 703 702
1 3 662 663 704 703
1 3 703 704 745 744
1 3 704 705 746 745
1 3 663 664 705 704
1 3 664 665 706 705
1 3 665 666 707 706
1 3 706 707 748 747
1 3 705 706 747 746
1 3 746 747 788 787
1 3 747 748 789 788
1 3 788 789 830 829
1 3 787 788 829 828
1 3 786 787 828 827
1 3 745 746 787 786
1 3 744 745 786 785
1 3 785 786 827 826
1 3 826 827 868 867
1 3 867 868 909 908
1 3 868 869 910 909
1 3 827 828 869 868
1 3 828 829 870 869
1 3 829 830 871 870
1 3 870 871 912 911
1 3 869 870 911 910
1 3 910 911 952 951
1 3 911 912 953 952
1 3 952 953 994 993
1 3 951 952 993 992
1 3 950 951 992 991
1 3 909 910 951 950
1 3 908 909 950 949
1 3 949 950 991 990
1 3 948 949 990 989
1 3 947 948 989 988
1 3 946 947 988 987
1 3 905 906 947 946
1 3 906 907 948 947
1 3 907 908 949 948
1 3 866 867 908 907
1 3 825 826 867 866
1 3 824 825 866 865
1 3 865 866 907 906
1 3 864 865 906 905
1 3 823 824 865 864
1 3 822 823 864 863
1 3 863 864 905 904
1 3 862 863 904 903
1 3 821 822 863 862
1 3 820 821 862 861
1 3 861 862 903 902
1 3 902 903 944 943
1 3 903 904 945 944
1 3 904 905 946 945
1 3 945 946 987 986
1 3 944 945 986 985
1 3 943 944 985 984
1 3 984 985 1026 1025
1 3 1025 1026 1067 1066
1 3 1026 1027 1068 1067
1 3 985 986 1027 1026
1 3 986 987 1028 1027
1 3 1027 1028 1069 1068
1 3 1068 1069 1110 1109
1 3 1109 1110 1151 1150
1 3 1108 1109 1150 1149
1 3 1067 1068 1109 1108
1 3 1066 1067 1108 1107
1 3 1107 1108 1149 1148
1 3 1148 1149 1190 1189
1 3 1189 1190 1231 1230
1 3 1190 1191 1232 1231
1 3 1149 1150 1191 1190
1 3 1150 1151 1192 1191
1 3 1191 1192 1233 1232
1 3 1192 1193 1234 1233
1 3 1151 1152 1193 1192
1 3 1152 1153 1194 1193
1 3 1193 1194 1235 1234
1 3 1194 1195 1236 1235
1 3 1153 1154 1195 1194
1 3 1112 1113 1154 1153
1 3 1071 1072 1113 1112
1 3 1070 1071 1112 1111
1 3 1111 1112 1153 1152
1 3 1110 1111 1152 1151
1 3 1069 1070 1111 1110
1 3 1028 1029 1070 1069
1 3 987 988 1029 1028
1 3 988 989 1030 1029
1 3 1029 1030 1071 1070
1 3 1030 1031 1072 1071
1 3 989 990 1031 1030
1 3 990 991 1032 1031
1 3 991 992 1033 1032
1 3 1032 1033 1074 1073
1 3 1031 1032 1073 1072
1 3 1072 1073 1114 1113
1 3 1073 1074 1115 1114
1 3 1114 1115 1156 1155
1 3 1113 1114 1155 1154
1 3 1154 1155 1196 1195
1 3 1195 1196 1237 1236
1 3 1196 1197 1238 1237
1 3 1155 1156 1197 1196
1 3 1156 1157 1198 1197
1 3 1197 1198 1239 1238
1 3 1198 1199 1240 1239
1 3 1157 1158 1199 1198
1 3 1116 1117 1158 1157
1 3 1115 1116 1157 1156
1 3 1074 1075 1116 1115
1 3 1075 1076 1117 1116
1 3 1034 1035 1076 1075
1 3 1033 1034 1075 1074
1 3 992 993 1034 1033
1 3 993 994 1035 1034
1 3 994 995 1036 1035
1 3 1035 1036 1077 1076
1 3 1036 1037 1078 1077
1 3 995 996 1037 1036
1 3 996 997 1038 1037
1 3 1037 1038 1079 1078
1 3 1078 1079 1120 1119
1 3 1119 1120 1161 1160
1 3 1118 1119 1160 1159
1 3 1077 1078 1119 1118
1 3 1076 1077 1118 1117
1 3 1117 1118 1159 1158
1 3 1158 1159 1200 1199
1 3 1199 1200 1241 1240
1 3 1200 1201 1242 1241
1 3 1159 1160 1201 1200
1 3 1160 1161 1202 1201
1 3 1201 1202 1243 1242
1 3 1202 1203 1244 1243
1 3 1161 1162 1203 1202
1 3 1162 1163 1204 1203
1 3 1203 1204 1245 1244
1 3 1204 1205 1246 1245
1 3 1163 1164 1205 1204
1 3 1122 1123 1164 1163
1 3 1081 1082 1123 1122
1 3 1080 1081 1122 1121
1 3 1121 1122 1163 1162
1 3 1120 1121 1162 1161
1 3 1079 1080 1121 1120
1 3 1038 1039 1080 1079
1 3 997 998 1039 1038
1 3 998 999 1040 1039
1 3 1039 1040 1081 1080
1 3 1040 1041 1082 1081
1 3 999 1000 1041 1040
1 3 1000 1001 1042 1041
1 3 1001 1002 1043 1042
1 3 1042 1043 1084 1083
1 3 1041 1042 1083 1082
1 3 1082 1083 1124 1123
1 3 1083 1084 1125 1124
1 3 1124 1125 1166 1165
1 3 1123 1124 1165 1164
1 3 1164 1165 1206 1205
1 3 1205 1206 1247 1246
1 3 1206 1207 1248 1247
1 3 1165 1166 1207 1206
1 3 1166 1167 1208 1207
1 3 1207 1208 1249 1248
1 3 1208 1209 1250 1249
1 3 1167 1168 1209 1208
1 3 1126 1127 1168 1167
1 3 1125 1126 1167 1166
1 3 1084 1085 1126 1125
1 3 1085 1086 1127 1126
1 3 1044 1045 1086 1085
1 3 1043 1044 1085 1084
1 3 1002 1003 1044 1043
1 3 1003 1004 1045 1044
1 3 962 963 1004 1003
1 3 961 962 1003 1002
1 3 960 961 1002 1001
1 3 919 920 961 960
1 3 920 921 962 961
1 3 921 922 963 962
1 3 880 881 922 921
1 3 839 840 881 880
1 3 838 839 880 879
1 3 879 880 921 920
1 3 878 879 920 919
1 3 837 838 879 878
1 3 836 837 878 877
1 3 877 878 919 918
1 3 876 877 918 917
1 3 835 836 877 876
1 3 834 835 876 875
1 3 875 876 917 916
1 3 916 917 958 957
1 3 917 918 959 958
1 3 918 919 960 959
1 3 959 960 1001 1000
1 3 958 959 1000 999
1 3 957 958 999 998
1 3 956 957 998 997
1 3 915 916 957 956
1 3 914 915 956 955
1 3 955 956 997 996
1 3 954 955 996 995
1 3 953 954 995 994
1 3 912 913 954 953
1 3 913 914 955 954
1 3 872 873 914 913
1 3 871 872 913 912
1 3 830 831 872 871
1 3 831 832 873 872
1 3 832 833 874 873
1 3 873 874 915 914
1 3 874 875 916 915
1 3 833 834 875 874
1 3 792 793 834 833
1 3 751 752 793 792
1 3 750 751 792 791
1 3 791 792 833 832
1 3 790 791 832 831
1 3 789 790 831 830
1 3 748 749 790 789
1 3 749 750 791 790
1 3 708 709 750 749
1 3 707 708 749 748
1 3 666 667 708 707
1 3 667 668 709 708
1 3 668 669 710 709
1 3 709 710 751 750
1 3 710 711 752 751
1 3 669 670 711 710
1 3 670 671 712 711
1 3 671 672 713 712
1 3 672 673 714 713
1 3 713 714 755 754
1 3 712 713 754 753
1 3 711 712 753 752
1 3 752 753 794 793
1 3 793 794 835 834
1 3 794 795 836 835
1 3 753 754 795 794
1 3 754 755 796 795
1 3 795 796 837 836
1 3 796 797 838 837
1 3 755 756 797 796
1 3 756 757 798 797
1 3 797 798 839 838
1 3 798 799 840 839
1 3 757 758 799 798
1 3 716 717 758 757
1 3 715 716 757 756
1 3 714 715 756 755
1 3 673 674 715 714
1 3 674 675 716 715
1 3 675 676 717 716
1 3 676 677 718 717
1 3 677 678 719 718
1 3 678 679 720 719
1 3 719 720 761 760
1 3 718 719 760 759
1 3 717 718 759 758
1 3 758 759 800 799
1 3 799 800 841 840
1 3 800 801 842 841
1 3 759 760 801 800
1 3 760 761 802 801
1 3 801 802 843 842
1 3 802 803 844 843
1 3 761 762 803 802
1 3 762 763 804 803
1 3 803 804 845 844
1 3 804 805 846 845
1 3 763 764 805 804
1 3 722 723 764 763
1 3 721 722 763 762
1 3 720 721 762 761
1 3 679 680 721 720
1 3 680 681 722 721
1 3 681 682 723 722
1 3 682 683 724 723
1 3 723 724 765 764
1 3 724 725 766 765
1 3 683 684 725 724
1 3 684 685 726 725
1 3 685 686 727 726
1 3 726 727 768 767
1 3 725 726 767 766
1 3 766 767 808 807
1 3 767 768 809 808
1 3 808 809 850 849
1 3 807 808 849 848
1 3 806 807 848 847
1 3 765 766 807 806
1 3 764 765 806 805
1 3 805 806 847 846
1 3 846 847 888 887
1 3 887 888 929 928
1 3 888 889 930 929
1 3 847 848 889 888
1 3 848 849 890 889
1 3 849 850 891 890
1 3 890 891 932 931
1 3 889 890 931 930
1 3 930 931 972 971
1 3 931 932 973 972
1 3 972 973 1014 1013
1 3 971 972 1013 1012
1 3 970 971 1012 1011
1 3 929 930 971 970
1 3 928 929 970 969
1 3 969 970 1011 1010
1 3 968 969 1010 1009
1 3 967 968 1009 1008
1 3 966 967 1008 1007
1 3 925 926 967 966
1 3 926 927 968 967
1 3 927 928 969 968
1 3 886 887 928 927
1 3 845 846 887 886
1 3 844 845 886 885
1 3 885 886 927 926
1 3 884 885 926 925
1 3 843 844 885 884
1 3 842 843 884 883
1 3 883 884 925 924
1 3 882 883 924 923
1 3 841 842 883 882
1 3 840 841 882 881
1 3 881 882 923 922
1 3 922 923 964 963
1 3 923 924 965 964
1 3 924 925 966 965
1 3 965 966 1007 1006
1 3 964 965 1006 1005
1 3 963 964 1005 1004
1 3 1004 1005 1046 1045
1 3 1045 1046 1087 1086
1 3 1046 1047 1088 1087
1 3 1005 1006 1047 1046
1 3 1006 1007 1048 1047
1 3 1047 1048 1089 1088
1 3 1088 1089 1130 1129
1 3 1129 1130 1171 1170
1 3 1128 1129 1170 1169
1 3 1087 1088 1129 1128
1 3 1086 1087 1128 1127
1 3 1127 1128 1169 1168
1 3 1168 1169 1210 1209
1 3 1209 1210 1251 1250
1 3 1210 1211 1252 1251
1 3 1169 1170 1211 1210
1 3 1170 1171 1212 1211
1 3 1211 1212 1253 1252
1 3 1212 1213 1254 1253
1 3 1171 1172 1213 1212
1 3 1172 1173 1214 1213
1 3 1213 1214 1255 1254
1 3 1214 1215 1256 1255
1 3 1173 1174 1215 1214
1 3 1132 1133 1174 1173
1 3 1091 1092 1133 1132
1 3 1090 1091 1132 1131
1 3 1131 1132 1173 1172
1 3 1130 1131 1172 1171
1 3 1089 1090 1131 1130
1 3 1048 1049 1090 1089
1 3 1007 1008 1049 1048
1 3 1008 1009 1050 1049
1 3 1049 1050 1091 1090
1 3 1050 1051 1092 1091
1 3 1009 1010 1051 1050
1 3 1010 1011 1052 1051
1 3 1011 1012 1053 1052
1 3 1052 1053 1094 1093
1 3 1051 1052 1093 1092
1 3 1092 1093 1134 1133
1 3 1093 1094 1135 1134
1 3 1134 1135 1176 1175
1 3 1133 1134 1175 1174
1 3 1174 1175 1216 1215
1 3 1215 1216 1257 1256
1 3 1216 1217 1258 1257
1 3 1175 1176 1217 1216
1 3 1176 1177 1218 1217
1 3 1217 1218 1259 1258
1 3 1218 1219 1260 1259
1 3 1177 1178 1219 1218
1 3 1136 1137 1178 1177
1 3 1135 1136 1177 1176
1 3 1094 1095 1136 1135
1 3 1095 1096 1137 1136
1 3 1054 1055 1096 1095
1 3 1053 1054 1095 1094
1 3 1012 1013 1054 1053
1 3 1013 1014 1055 1054
1 3 1014 1015 1056 1055
1 3 1055 1056 1097 1096
1 3 1056 1057 1098 1097
1 3 1015 1016 1057 1056
1 3 1016 1017 1058 1057
1 3 1057 1058 1099 1098
1 3 1098 1099 1140 1139
1 3 1139 1140 1181 1180
1 3 1138 1139 1180 1179
1 3 1097 1098 1139 1138
1 3 1096 1097 1138 1137
1 3 1137 1138 1179 1178
1 3 1178 1179 1220 1219
1 3 1219 1220 1261 1260
1 3 1220 1221 1262 1261
1 3 1179 1180 1221 1220
1 3 1180 1181 1222 1221
1 3 1221 1222 1263 1262
1 3 1222 1223 1264 1263
1 3 1181 1182 1223 1222
1 3 1182 1183 1224 1223
1 3 1223 1224 1265 1264
1 3 1224 1225 1266 1265
1 3 1183 1184 1225 1224
1 3 1142 1143 1184 1183
1 3 1101 1102 1143 1142
1 3 1100 1101 1142 1141
1 3 1141 1142 1183 1182
1 3 1140 1141 1182 1181
1 3 1099 1100 1141 1140
1 3 1058 1059 1100 1099
1 3 1017 1018 1059 1058
1 3 1018 1019 1060 1059
1 3 1059 1060 1101 1100
1 3 1060 1061 1102 1101
1 3 1019 1020 1061 1060
1 3 1020 1021 1062 1061
1 3 1021 1022 1063 1062
1 3 1062 1063 1104 1103
1 3 1061 1062 1103 1102
1 3 1102 1103 1144 1143
1 3 1103 1104 1145 1144
1 3 1144 1145 1186 1185
1 3 1143 1144 1185 1184
1 3 1184 1185 1226 1225
1 3 1225 1226 1267 1266
1 3 1226 1227 1268 1267
1 3 1185 1186 1227 1226
1 3 1186 1187 1228 1227
1 3 1227 1228 1269 1268
1 3 1228 1229 1270 1269
1 3 1187 1188 1229 1228
1 3 1146 1147 1188 1187
1 3 1145 1146 1187 1186
1 3 1104 1105 1146 1145
1 3 1105 1106 1147 1146
1 3 1064 1065 1106 1105
1 3 1063 1064 1105 1104
1 3 1022 1023 1064 1063
1 3 1023 1024 1065 1064
1 3 982 983 1024 1023
1 3 981 982 1023 1022
1 3 980 981 1022 1021
1 3 939 940 981 980
1 3 940 941 982 981
1 3 941 942 983 982
1 3 900 901 942 941
1 3 859 860 901 900
1 3 858 859 900 899
1 3 899 900 941 940
1 3 898 899 940 939
1 3 857 858 899 898
1 3 856 857 898 897
1 3 897 898 939 938
1 3 896 897 938 937
1 3 855 856 897 896
1 3 854 855 896 895
1 3 895 896 937 936
1 3 936 937 978 977
1 3 937 938 979 978
1 3 938 939 980 979
1 3 979 980 1021 1020
1 3 978 979 1020 1019
1 3 977 978 1019 1018
1 3 976 977 1018 1017
1 3 935 936 977 976
1 3 934 935 976 975
1 3 975 976 1017 1016
1 3 974 975 1016 1015
1 3 973 974 1015 1014
1 3 932 933 974 973
1 3 933 934 975 974
1 3 892 893 934 933
1 3 891 892 933 932
1 3 850 851 892 891
1 3 851 852 893 892
1 3 852 853 894 893
1 3 893 894 935 934
1 3 894 895 936 935
1 3 853 854 895 894
1 3 812 813 854 853
1 3 771 772 813 812
1 3 770 771 812 811
1 3 811 812 853 852
1 3 810 811 852 851
1 3 809 810 851 850
1 3 768 769 810 809
1 3 769 770 811 810
1 3 728 729 770 769
1 3 727 728 769 768
1 3 686 687 728 727
1 3 687 688 729 728
1 3 688 689 730 729
1 3 729 730 771 770
1 3 730 731 772 771
1 3 689 690 731 730
1 3 690 691 732 731
1 3 691 692 733 732
1 3 692 693 734 733
1 3 733 734 775 774
1 3 732 733 774 773
1 3 731 732 773 772
1 3 772 773 814 813
1 3 813 814 855 854
1 3 814 815 856 855
1 3 773 774 815 814
1 3 774 775 816 815
1 3 815 816 857 856
1 3 816 817 858 857
1 3 775 776 817 816
1 3 776 777 818 817
1 3 817 818 859 858
1 3 818 819 860 859
1 3 777 778 819 818
1 3 736 737 778 777
1 3 735 736 777 776
1 3 734 735 776 775
1 3 693 694 735 734
1 3 694 695 736 735
1 3 695 696 737 736
1 3 654 655 696 695
1 3 613 614 655 654
1 3 612 613 654 653
1 3 653 654 695 694
1 3 652 653 694 693
1 3 611 612 653 652
1 3 610 611 652 651
1 3 651 652 693 692
1 3 650 651 692 691
1 3 609 610 651 650
1 3 568 569 610 609
1 3 527 528 569 568
1 3 528 529 570 569
1 3 569 570 611 610
1 3 570 571 612 611
1 3 529 530 571 570
1 3 530 531 572 571
1 3 571 572 613 612
1 3 572 573 614 613
1 3 531 532 573 572
1 3 490 491 532 531
1 3 489 490 531 530
1 3 488 489 530 529
1 3 447 448 489 488
1 3 448 449 490 489
1 3 449 450 491 490
1 3 408 409 450 449
1 3 367 368 409 408
1 3 366 367 408 407
1 3 407 408 449 448
1 3 406 407 448 447
1 3 365 366 407 406
1 3 364 365 406 405
1 3 405 406 447 446
1 3 404 405 446 445
1 3 363 364 405 404
1 3 362 363 404 403
1 3 403 404 445 444
1 3 444 445 486 485
1 3 445 446 487 486
1 3 446 447 488 487
1 3 487 488 529 528
1 3 486 487 528 527
1 3 485 486 527 526
1 3 484 485 526 525
1 3 483 484 525 524
1 3 442 443 484 483
1 3 443 444 485 484
1 3 402 403 444 443
1 3 361 362 403 402
1 3 360 361 402 401
1 3 401 402 443 442
1 3 400 401 442 441
1 3 359 360 401 400
1 3 358 359 400 399
1 3 399 400 441 440
1 3 440 441 482 481
1 3 441 442 483 482
1 3 482 483 524 523
1 3 481 482 523 522
1 3 522 523 564 563
1 3 563 564 605 604
1 3 564 565 606 605
1 3 523 524 565 564
1 3 524 525 566 565
1 3 565 566 607 606
1 3 566 567 608 607
1 3 525 526 567 566
1 3 526 527 568 567
1 3 567 568 609 608
1 3 608 609 650 649
1 3 649 650 691 690
1 3 648 649 690 689
1 3 607 608 649 648
1 3 606 607 648 647
1 3 647 648 689 688
1 3 646 647 688 687
1 3 605 606 647 646
1 3 604 605 646 645
1 3 645 646 687 686
1 3 644 645 686 685
1 3 643 644 685 684
1 3 642 643 684 683
1 3 601 602 643 642
1 3 602 603 644 643
1 3 603 604 645 644
1 3 562 563 604 603
1 3 521 522 563 562
1 3 520 521 562 561
1 3 561 562 603 602
1 3 560 561 602 601
1 3 519 520 561 560
1 3 518 519 560 559
1 3 559 560 601 600
1 3 558 559 600 599
1 3 517 518 559 558
1 3 516 517 558 557
1 3 557 558 599 598
1 3 598 599 640 639
1 3 599 600 641 640
1 3 600 601 642 641
1 3 641 642 683 682
1 3 640 641 682 681
1 3 639 640 681 680
1 3 638 639 680 679
1 3 597 598 639 638
1 3 596 597 638 637
1 3 637 638 679 678
1 3 636 637 678 677
1 3 635 636 677 676
1 3 594 595 636 635
1 3 595 596 637 636
1 3 554 555 596 595
1 3 553 554 595 594
1 3 512 513 554 553
1 3 513 514 555 554
1 3 514 515 556 555
1 3 555 556 597 596
1 3 556 557 598 597
1 3 515 516 557 556
1 3 474 475 516 515
1 3 433 434 475 474
1 3 432 433 474 473
1 3 473 474 515 514
1 3 472 473 514 513
1 3 471 472 513 512
1 3 430 431 472 471
1 3 431 432 473 472
1 3 390 391 432 431
1 3 389 390 431 430
1 3 348 349 390 389
1 3 349 350 391 390
1 3 350 351 392 391
1 3 391 392 433 432
1 3 392 393 434 433
1 3 351 352 393 392
1 3 352 353 394 393
1 3 353 354 395 394
1 3 354 355 396 395
1 3 395 396 437 436
1 3 394 395 436 435
1 3 393 394 435 434
1 3 434 435 476 475
1 3 475 476 517 516
1 3 476 477 518 517
1 3 435 436 477 476
1 3 436 437 478 477
1 3 477 478 519 518
1 3 478 479 520 519
1 3 437 438 479 478
1 3 438 439 480 479
1 3 479 480 521 520
1 3 480 481 522 521
1 3 439 440 481 480
1 3 398 399 440 439
1 3 397 398 439 438
1 3 396 397 438 437
1 3 355 356 397 396
1 3 356 357 398 397
1 3 357 358 399 398
1 3 316 317 358 357
1 3 315 316 357 356
1 3 314 315 356 355
1 3 273 274 315 314
1 3 274 275 316 315
1 3 275 276 317 316
1 3 234 235 276 275
1 3 193 194 235 234
1 3 192 193 234 233
1 3 233 234 275 274
1 3 232 233 274 273
1 3 191 192 233 232
1 3 190 191 232 231
1 3 231 232 273 272
1 3 230 231 272 271
1 3 189 190 231 230
1 3 188 189 230 229
1 3 229 230 271 270
1 3 270 271 312 311
1 3 271 272 313 312
1 3 272 273 314 313
1 3 313 314 355 354
1 3 312 313 354 353
1 3 311 312 353 352
1 3 310 311 352 351
1 3 269 270 311 310
1 3 268 269 310 309
1 3 309 310 351 350
1 3 308 309 350 349
1 3 307 308 349 348
1 3 266 267 308 307
1 3 267 268 309 308
1 3 226 227 268 267
1 3 225 226 267 266
1 3 184 185 226 225
1 3 185 186 227 226
1 3 186 187 228 227
1 3 227 228 269 268
1 3 228 229 270 269
1 3 187 188 229 228
1 3 146 147 188 187
1 3 105 106 147 146
1 3 104 105 146 145
1 3 145 146 187 186
1 3 144 145 186 185
1 3 143 144 185 184
1 3 102 103 144 143
1 3 103 104 145 144
1 3 62 63 104 103
1 3 61 62 103 102
1 3 20 21 62 61
1 3 21 22 63 62
1 3 22 23 64 63
1 3 63 64 105 104
1 3 64 65 106 105
1 3 23 24 65 64
1 3 24 25 66 65
1 3 25 26 67 66
1 3 26 27 68 67
1 3 67 68 109 108
1 3 66 67 108 107
1 3 65 66 107 106
1 3 106 107 148 147
1 3 147 148 189 188
1 3 148 149 190 189
1 3 107 108 149 148
1 3 108 109 150 149
1 3 149 150 191 190
1 3 150 151 192 191
1 3 109 110 151 150
1 3 110 111 152 151
1 3 151 152 193 192
1 3 152 153 194 193
1 3 111 112 153 152
1 3 70 71 112 111
1 3 69 70 111 110
1 3 68 69 110 109
1 3 27 28 69 68
1 3 28 29 70 69
1 3 29 30 71 70
1 3 30 31 72 71
1 3 71 72 113 112
1 3 72 73 114 113
1 3 31 32 73 72
1 3 32 33 74 73
1 3 73 74 115 114
1 3 74 75 116 115
1 3 33 34 75 74
1 3 34 35 76 75
1 3 75 76 117 116
1 3 116 117 158 157
1 3 157 158 199 198
1 3 156 157 198 197
1 3 115 116 157 156
1 3 114 115 156 155
1 3 155 156 197 196
1 3 154 155 196 195
1 3 113 114 155 154
1 3 112 113 154 153
1 3 153 154 195 194
1 3 194 195 236 235
1 3 195 196 237 236
1 3 196 197 238 237
1 3 237 238 279 278
1 3 236 237 278 277
1 3 235 236 277 276
1 3 276 277 318 317
1 3 317 318 359 358
1 3 318 319 360 359
1 3 277 278 319 318
1 3 278 279 320 319
1 3 319 320 361 360
1 3 320 321 362 361
1 3 279 280 321 320
1 3 280 281 322 321
1 3 321 322 363 362
1 3 322 323 364 363
1 3 281 282 323 322
1 3 240 241 282 281
1 3 239 240 281 280
1 3 238 239 280 279
1 3 197 198 239 238
1 3 198 199 240 239
1 3 199 200 241 240
1 3 200 201 242 241
1 3 201 202 243 242
1 3 242 243 284 283
1 3 241 242 283 282
1 3 282 283 324 323
1 3 323 324 365 364
1 3 324 325 366 365
1 3 283 284 325 324
1 3 284 285 326 325
1 3 325 326 367 366
1 3 326 327 368 367
1 3 285 286 327 326
1 3 244 245 286 285
1 3 243 244 285 284
1 3 202 203 244 243
1 3 203 204 245 244
1 3 162 163 204 203
1 3 121 122 163 162
1 3 120 121 162 161
1 3 161 162 203 202
1 3 160 161 202 201
1 3 119 120 161 160
1 3 118 119 160 159
1 3 159 160 201 200
1 3 158 159 200 199
1 3 117 118 159 158
1 3 76 77 118 117
1 3 35 36 77 76
1 3 36 37 78 77
1 3 77 78 119 118
1 3 78 79 120 119
1 3 37 38 79 78
1 3 38 39 80 79
1 3 79 80 121 120
1 3 80 81 122 121
1 3 39 40 81 80

boundary
140
1 1 0 1
1 1 1 2
1 1 2 3
1 1 3 4
1 1 4 5
1 1 5 6
1 1 6 7
1 1 7 8
1 1 8 9
1 1 9 10
1 1 10 11
1 1 11 12
1 1 12 13
1 1 13 14
1 1 14 15
1 1 15 16
1 1 16 17
1 1 17 18
1 1 18 19
1 1 19 20
1 1 20 21
1 1 21 22
1 1 22 23
1 1 23 24
1 1 24 25
1 1 25 26
1 1 26 27
1 1 27 28
1 1 28 29
1 1 29 30
1 1 30 31
1 1 31 32
1 1 32 33
1 1 33 34
1 1 34 35
1 1 35 36
1 1 36 37
1 1 37 38
1 1 38 39
1 1 39 40
3 1 1231 1230
3 1 1232 1231
3 1 1233 1232
3 1 1234 1233
3 1 1235 1234
3 1 1236 1235
3 1 1237 1236
3 1 1238 1237
3 1 1239 1238
3 1 1240 1239
3 1 1241 1240
3 1 1242 1241
3 1 1243 1242
3 1 1244 1243
3 1 1245 1244
3 1 1246 1245
3 1 1247 1246
3 1 1248 1247
3 1 1249 1248
3 1 1250 1249
3 1 1251 1250
3 1 1252 1251
3 1 1253 1252
3 1 1254 1253
3 1 1255 1254
3 1 1256 1255
3 1 1257 1256
3 1 1258 1257
3 1 1259 1258
3 1 1260 1259
3 1 1261 1260
3 1 1262 1261
3 1 1263 1262
3 1 1264 1263
3 1 1265 1264
3 1 1266 1265
3 1 1267 1266
3 1 1268 1267
3 1 1269 1268
3 1 1270 1269
4 1 41 0
4 1 82 41
4 1 123 82
4 1 164 123
4 1 205 164
4 1 246 205
4 1 287 246
4 1 328 287
4 1 369 328
4 1 410 369
4 1 451 410
4 1 492 451
4 1 533 492
4 1 574 533
4 1 615 574
4 1 656 615
4 1 697 656
4 1 738 697
4 1 779 738
4 1 820 779
4 1 861 820
4 1 902 861
4 1 943 902
4 1 984 943
4 1 1025 984
4 1 1066 1025
4 1 1107 1066
4 1 1148 1107
4 1 1189 1148
4 1 1230 1189
2 1 40 81
2 1 81 122
2 1 122 163
2 1 163 204
2 1 204 245
2 1 245 286
2 1 286 327
2 1 327 368
2 1 368 409
2 1 409 450
2 1 450 491
2 1 491 532
2 1 532 573
2 1 573 614
2 1 614 655
2 1 655 696
2 1 696 737
2 1 737 778
2 1 778 819
2 1 819 860
2 1 860 901
2 1 901 942
2 1 942 983
2 1 983 1024
2 1 1024 1065
2 1 1065 1106
2 1 1106 1147
2 1 1147 1188
2 1 1188 1229
2 1 1229 1270

vertices
1271
2
3.5 -3.4
3.625 -3.4
3.75 -3.4
3.875 -3.4
4 -3.4
4.125 -3.4
4.25 -3.4
4.375 -3.4
4.5 -3.4
4.625 -3.4
4.75 -3.4
4.875 -3.4
5 -3.4
5.125 -3.4
5.25 -3.4
5.375 -3.4
5.5 -3.4
5.625 -3.4
5.75 -3.4
5.875 -3.4
6 -3.4
6.125 -3.4
6.25 -3.4
6.375 -3.4
6.5 -3.4
6.625 -3.4
6.75 -3.4
6.875 -3.4
7 -3.4
7.125 -3.4
7.25 -3.4
7.375 -3.4
7.5 -3.4
7.625 -3.4
7.75 -3.4
7.875 -3.4
8 -3.4
8.125 -3.4
8.25 -3.4
8.375 -3.4
8.5 -3.4
3.5 -3.1233333
3.625 -3.1233333
3.75 -3.1233333
3.875 -3.1233333
4 -3.1233333
4.125 -3.1233333
4.25 -3.1233333
4.375 -3.1233333
4.5 -3.1233333
4.625 -3.1233333
4.75 -3.1233333
4.875 -3.1233333
5 -3.1233333
5.125 -3.1233333
5.25 -3.1233333
5.375 -3.1233333
5.5 -3.1233333
5.625 -3.1233333
5.75 -3.1233333
5.875 -3.1233333
6 -3.1233333
6.125 -3.1233333
6.25 -3.1233333
6.375 -3.1233333
6.5 -3.1233333
6.625 -3.1233333
6.75 -3.1233333
6.875 -3.1233333
7 -3.1233333
7.125 -3.1233333
7.25 -3.1233333
7.375 -3.1233333
7.5 -3.1233333
7.625 -3.1233333
7.75 -3.1233333
7.875 -3.1233333
8 -3.1233333
8.125 -3.1233333
8.25 -3.1233333
8.375 -3.1233333
8.5 -3.1233333
3.5 -2.8466667
3.625 -2.8466667
3.75 -2.8466667
3.875 -2.8466667
4 -2.8466667
4.125 -2.8466667
4.25 -2.8466667
4.375 -2.8466667
4.5 -2.8466667
4.625 -2.8466667
4.75 -2.8466667
4.875 -2.8466667
5 -2.8466667
5.125 -2.8466667
5.25 -2.8466667
5.375 -2.8466667
5.5 -2.8466667
5.625 -2.8466667
5.75 -2.8466667
5.875 -2.8466667
6 -2.8466667
6.125 -2.8466667
6.25 -2.8466667
6.375 -2.8466667
6.5 -2.8466667
6.625 -2.8466667
6.75 -2.8466667
6.875 -2.8466667
7 -2.8466667
7.125 -2.8466667
7.25 -2.8466667
7.375 -2.8466667
7.5 -2.8466667
7.625 -2.8466667
7.75 -2.8466667
7.875 -2.8466667
8 -2.8466667
8.125 -2.8466667
8.25 -2.8466667
8.375 -2.8466667
8.5 -2.8466667
3.5 -2.57
3.625 -2.57
3.75 -2.57
3.875 -2.57
4 -2.57
4.125 -2.57
4.25 -2.57
4.375 -2.57
4.5 -2.57
4.625 -2.57
4.75 -2.57
4.875 -2.57
5 -2.57
5.125 -2.57
5.25 -2.57
5.375 -2.57
5.5 -2.57
5.625 -2.57
5.75 -2.57
5.875 -2.57
6 -2.57
6.125 -2.57
6.25 -2.57
6.375 -2.57
6.5 -2.57
6.625 -2.57
6.75 -2.57
6.875 -2.57
7 -2.57
7.125 -2.57
7.25 -2.57
7.375 -2.57
7.5 -2.57
7.625 -2.57
7.75 -2.57
7.875 -2.57
8 -2.57
8.125 -2.57
8.25 -2.57
8.375 -2.57
8.5 -2.57
3.5 -2.2933333
3.625 -2.2933333
3.75 -2.2933333
3.875 -2.2933333
4 -2.2933333
4.125 -2.2933333
4.25 -2.2933333
4.375 -2.2933333
4.5 -2.2933333
4.625 -2.2933333
4.75 -2.2933333
4.875 -2.2933333
5 -2.2933333
5.125 -2.2933333
5.25 -2.2933333
5.375 -2.2933333
5.5 -2.2933333
5.625 -2.2933333
5.75 -2.2933333
5.875 -2.2933333
6 -2.2933333
6.125 -2.2933333
6.25 -2.2933333
6.375 -2.2933333
6.5 -2.2933333
6.625 -2.2933333
6.75 -2.2933333
6.875 -2.2933333
7 -2.2933333
7.125 -2.2933333
7.25 -2.2933333
7.375 -2.2933333
7.5 -2.2933333
7.625 -2.2933333
7.75 -2.2933333
7.875 -2.2933333
8 -2.2933333
8.125 -2.2933333
8.25 -2.2933333
8.375 -2.2933333
8.5 -2.2933333
3.5 -2.0166667
3.625 -2.0166667
3.75 -2.0166667
3.875 -2.0166667
4 -2.0166667
4.125 -2.0166667
4.25 -2.0166667
4.375 -2.0166667
4.5 -2.0166667
4.625 -2.0166667
4.75 -2.0166667
4.875 -2.0166667
5 -2.0166667
5.125 -2.0166667
5.25 -2.0166667
5.375 -2.0166667
5.5 -2.0166667
5.625 -2.0166667
5.75 -2.0166667
5.875 -2.0166667
6 -2.0166667
6.125 -2.0166667
6.25 -2.0166667
6.375 -2.0166667
6.5 -2.0166667
6.625 -2.0166667
6.75 -2.0166667
6.875 -2.0166667
7 -2.0166667
7.125 -2.0166667
7.25 -2.0166667
7.375 -2.0166667
7.5 -2.0166667
7.625 -2.0166667
7.75 -2.0166667
7.875 -2.0166667
8 -2.0166667
8.125 -2.0166667
8.25 -2.0166667
8.375 -2.0166667
8.5 -2.0166667
3.5 -1.74
3.625 -1.74
3.75 -1.74
3.875 -1.74
4 -1.74
4.125 -1.74
4.25 -1.74
4.375 -1.74
4.5 -1.74
4.625 -1.74
4.75 -1.74
4.875 -1.74
5 -1.74
5.125 -1.74
5.25 -1.74
5.375 -1.74
5.5 -1.74
5.625 -1.74
5.75 -1.74
5.875 -1.74
6 -1.74
6.125 -1.74
6.25 -1.74
6.375 -1.74
6.5 -1.74
6.625 -1.74
6.75 -1.74
6.875 -1.74
7 -1.74
7.125 -1.74
7.25 -1.74
7.375 -1.74
7.5 -1.74
7.625 -1.74
7.75 -1.74
7.875 -1.74
8 -1.74
8.125 -1.74
8.25 -1.74
8.375 -1.74
8.5 -1.74
3.5 -1.4633333
3.625 -1.4633333
3.75 -1.4633333
3.875 -1.4633333
4 -1.4633333
4.125 -1.4633333
4.25 -1.4633333
4.375 -1.4633333
4.5 -1.4633333
4.625 -1.4633333
4.75 -1.4633333
4.875 -1.4633333
5 -1.4633333
5.125 -1.4633333
5.25 -1.4633333
5.375 -1.4633333
5.5 -1.4633333
5.625 -1.4633333
5.75 -1.4633333
5.875 -1.4633333
6 -1.4633333
6.125 -1.4633333
6.25 -1.4633333
6.375 -1.4633333
6.5 -1.4633333
6.625 -1.4633333
6.75 -1.4633333
6.875 -1.4633333
7 -1.4633333
7.125 -1.4633333
7.25 -1.4633333
7.375 -1.4633333
7.5 -1.4633333
7.625 -1.4633333
7.75 -1.4633333
7.875 -1.4633333
8 -1.4633333
8.125 -1.4633333
8.25 -1.4633333
8.375 -1.4633333
8.5 -1.4633333
3.5 -1.1866667
3.625 -1.1866667
3.75 -1.1866667
3.875 -1.1866667
4 -1.1866667
4.125 -1.1866667
4.25 -1.1866667
4.375 -1.1866667
4.5 -1.1866667
4.625 -1.1866667
4.75 -1.1866667
4.875 -1.1866667
5 -1.1866667
5.125 -1.1866667
5.25 -1.1866667
5.375 -1.1866667
5.5 -1.1866667
5.625 -1.1866667
5.75 -1.1866667
5.875 -1.1866667
6 -1.1866667
6.125 -1.1866667
6.25 -1.1866667
6.375 -1.1866667
6.5 -1.1866667
6.625 -1.1866667
6.75 -1.1866667
6.875 -1.1866667
7 -1.1866667
7.125 -1.1866667
7.25 -1.1866667
7.375 -1.1866667
7.5 -1.1866667
7.625 -1.1866667
7.75 -1.1866667
7.875 -1.1866667
8 -1.1866667
8.125 -1.1866667
8.25 -1.1866667
8.375 -1.1866667
8.5 -1.1866667
3.5 -0.91
3.625 -0.91
3.75 -0.91
3.875 -0.91
4 -0.91
4.125 -0.91
4.25 -0.91
4.375 -0.91
4.5 -0.91
4.625 -0.91
4.75 -0.91
4.875 -0.91
5 -0.91
5.125 -0.91
5.25 -0.91
5.375 -0.91
5.5 -0.91
5.625 -0.91
5.75 -0.91
5.875 -0.91
6 -0.91
6.125 -0.91
6.25 -0.91
6.375 -0.91
6.5 -0.91
6.625 -0.91
6.75 -0.91
6.875 -0.91
7 -0.91
7.125 -0.91
7.25 -0.91
7.375 -0.91
7.5 -0.91
7.625 -0.91
7.75 -0.91
7.875 -0.91
8 -0.91
8.125 -0.91
8.25 -0.91
8.375 -0.91
8.5 -0.91
3.5 -0.63333333
3.625 -0.63333333
3.75 -0.63333333
3.875 -0.63333333
4 -0.63333333
4.125 -0.63333333
4.25 -0.63333333
4.375 -0.63333333
4.5 -0.63333333
4.625 -0.63333333
4.75 -0.63333333
4.875 -0.63333333
5 -0.63333333
5.125 -0.63333333
5.25 -0.63333333
5.375 -0.63333333
5.5 -0.63333333
5.625 -0.63333333
5.75 -0.63333333
5.875 -0.63333333
6 -0.63333333
6.125 -0.63333333
6.25 -0.63333333
6.375 -0.63333333
6.5 -0.63333333
6.625 -0.63333333
6.75 -0.63333333
6.875 -0.63333333
7 -0.63333333
7.125 -0.63333333
7.25 -0.63333333
7.375 -0.63333333
7.5 -0.63333333
7.625 -0.63333333
7.75 -0.63333333
7.875 -0.63333333
8 -0.63333333
8.125 -0.63333333
8.25 -0.63333333
8.375 -0.63333333
8.5 -0.63333333
3.5 -0.35666667
3.625 -0.35666667
3.75 -0.35666667
3.875 -0.35666667
4 -0.35666667
4.125 -0.35666667
4.25 -0.35666667
4.375 -0.35666667
4.5 -0.35666667
4.625 -0.35666667
4.75 -0.35666667
4.875 -0.35666667
5 -0.35666667
5.125 -0.35666667
5.25 -0.35666667
5.375 -0.35666667
5.5 -0.35666667
5.625 -0.35666667
5.75 -0.35666667
5.875 -0.35666667
6 -0.35666667
6.125 -0.35666667
6.25 -0.35666667
6.375 -0.35666667
6.5 -0.35666667
6.625 -0.35666667
6.75 -0.35666667
6.875 -0.35666667
7 -0.35666667
7.125 -0.35666667
7.25 -0.35666667
7.375 -0.35666667
7.5 -0.35666667
7.625 -0.35666667
7.75 -0.35666667
7.875 -0.35666667
8 -0.35666667
8.125 -0.35666667
8.25 -0.35666667
8.375 -0.35666667
8.5 -0.35666667
3.5 -0.08
3.625 -0.08
3.75 -0.08
3.875 -0.08
4 -0.08
4.125 -0.08
4.25 -0.08
4.375 -0.08
4.5 -0.08
4.625 -0.08
4.75 -0.08
4.875 -0.08
5 -0.08
5.125 -0.08
5.25 -0.08
5.375 -0.08
5.5 -0.08
5.625 -0.08
5.75 -0.08
5.875 -0.08
6 -0.08
6.125 -0.08
6.25 -0.08
6.375 -0.08
6.5 -0.08
6.625 -0.08
6.75 -0.08
6.875 -0.08
7 -0.08
7.125 -0.08
7.25 -0.08
7.375 -0.08
7.5 -0.08
7.625 -0.08
7.75 -0.08
7.875 -0.08
8 -0.08
8.125 -0.08
8.25 -0.08
8.375 -0.08
8.5 -0.08
3.5 0.19666667
3.625 0.19666667
3.75 0.19666667
3.875 0.19666667
4 0.19666667
4.125 0.19666667
4.25 0.19666667
4.375 0.19666667
4.5 0.19666667
4.625 0.19666667
4.75 0.19666667
4.875 0.19666667
5 0.19666667
5.125 0.19666667
5.25 0.19666667
5.375 0.19666667
5.5 0.19666667
5.625 0.19666667
5.75 0.19666667
5.875 0.19666667
6 0.19666667
6.125 0.19666667
6.25 0.19666667
6.375 0.19666667
6.5 0.19666667
6.625 0.19666667
6.75 0.19666667
6.875 0.19666667
7 0.19666667
7.125 0.19666667
7.25 0.19666667
7.375 0.19666667
7.5 0.19666667
7.625 0.19666667
7.75 0.19666667
7.875 0.19666667
8 0.19666667
8.125 0.19666667
8.25 0.19666667
8.375 0.19666667
8.5 0.19666667
3.5 0.47333333
3.625 0.47333333
3.75 0.47333333
3.875 0.47333333
4 0.47333333
4.125 0.47333333
4.25 0.47333333
4.375 0.47333333
4.5 0.47333333
4.625 0.47333333
4.75 0.47333333
4.875 0.47333333
5 0.47333333
5.125 0.47333333
5.25 0.47333333
5.375 0.47333333
5.5 0.47333333
5.625 0.47333333
5.75 0.47333333
5.875 0.47333333
6 0.47333333
6.125 0.47333333
6.25 0.47333333
6.375 0.47333333
6.5 0.47333333
6.625 0.47333333
6.75 0.47333333
6.875 0.47333333
7 0.47333333
7.125 0.47333333
7.25 0.47333333
7.375 0.47333333
7.5 0.47333333
7.625 0.47333333
7.75 0.47333333
7.875 0.47333333
8 0.47333333
8.125 0.47333333
8.25 0.47333333
8.375 0.47333333
8.5 0.47333333
3.5 0.75
3.625 0.75
3.75 0.75
3.875 0.75
4 0.75
4.125 0.75
4.25 0.75
4.375 0.75
4.5 0.75
4.625 0.75
4.75 0.75
4.875 0.75
5 0.75
5.125 0.75
5.25 0.75
5.375 0.75
5.5 0.75
5.625 0.75
5.75 0.75
5.875 0.75
6 0.75
6.125 0.75
6.25 0.75
6.375 0.75
6.5 0.75
6.625 0.75
6.75 0.75
6.875 0.75
7 0.75
7.125 0.75
7.25 0.75
7.375 0.75
7.5 0.75
7.625 0.75
7.75 0.75
7.875 0.75
8 0.75
8.125 0.75
8.25 0.75
8.375 0.75
8.5 0.75
3.5 1.0266667
3.625 1.0266667
3.75 1.0266667
3.875 1.0266667
4 1.0266667
4.125 1.0266667
4.25 1.0266667
4.375 1.0266667
4.5 1.0266667
4.625 1.0266667
4.75 1.0266667
4.875 1.0266667
5 1.0266667
5.125 1.0266667
5.25 1.0266667
5.375 1.0266667
5.5 1.0266667
5.625 1.0266667
5.75 1.0266667
5.875 1.0266667
6 1.0266667
6.125 1.0266667
6.25 1.0266667
6.375 1.0266667
6.5 1.0266667
6.625 1.0266667
6.75 1.0266667
6.875 1.0266667
7 1.0266667
7.125 1.0266667
7.25 1.0266667
7.375 1.0266667
7.5 1.0266667
7.625 1.0266667
7.75 1.0266667
7.875 1.0266667
8 1.0266667
8.125 1.0266667
8.25 1.0266667
8.375 1.0266667
8.5 1.0266667
3.5 1.3033333
3.625 1.3033333
3.75 1.3033333
3.875 1.3033333
4 1.3033333
4.125 1.3033333
4.25 1.3033333
4.375 1.3033333
4.5 1.3033333
4.625 1.3033333
4.75 1.3033333
4.875 1.3033333
5 1.3033333
5.125 1.3033333
5.25 1.3033333
5.375 1.3033333
5.5 1.3033333
5.625 1.3033333
5.75 1.3033333
5.875 1.3033333
6 1.3033333
6.125 1.3033333
6.25 1.3033333
6.375 1.3033333
6.5 1.3033333
6.625 1.3033333
6.75 1.3033333
6.875 1.3033333
7 1.3033333
7.125 1.3033333
7.25 1.3033333
7.375 1.3033333
7.5 1.3033333
7.625 1.3033333
7.75 1.3033333
7.875 1.3033333
8 1.3033333
8.125 1.3033333
8.25 1.3033333
8.375 1.3033333
8.5 1.3033333
3.5 1.58
3.625 1.58
3.75 1.58
3.875 1.58
4 1.58
4.125 1.58
4.25 1.58
4.375 1.58
4.5 1.58
4.625 1.58
4.75 1.58
4.875 1.58
5 1.58
5.125 1.58
5.25 1.58
5.375 1.58
5.5 1.58
5.625 1.58
5.75 1.58
5.875 1.58
6 1.58
6.125 1.58
6.25 1.58
6.375 1.58
6.5 1.58
6.625 1.58
6.75 1.58
6.875 1.58
7 1.58
7.125 1.58
7.25 1.58
7.375 1.58
7.5 1.58
7.625 1.58
7.75 1.58
7.875 1.58
8 1.58
8.125 1.58
8.25 1.58
8.375 1.58
8.5 1.58
3.5 1.8566667
3.625 1.8566667
3.75 1.8566667
3.875 1.8566667
4 1.8566667
4.125 1.8566667
4.25 1.8566667
4.375 1.8566667
4.5 1.8566667
4.625 1.8566667
4.75 1.8566667
4.875 1.8566667
5 1.8566667
5.125 1.8566667
5.25 1.8566667
5.375 1.8566667
5.5 1.8566667
5.625 1.8566667
5.75 1.8566667
5.875 1.8566667
6 1.8566667
6.125 1.8566667
6.25 1.8566667
6.375 1.8566667
6.5 1.8566667
6.625 1.8566667
6.75 1.8566667
6.875 1.8566667
7 1.8566667
7.125 1.8566667
7.25 1.8566667
7.375 1.8566667
7.5 1.8566667
7.625 1.8566667
7.75 1.8566667
7.875 1.8566667
8 1.8566667
8.125 1.8566667
8.25 1.8566667
8.375 1.8566667
8.5 1.8566667
3.5 2.1333333
3.625 2.1333333
3.75 2.1333333
3.875 2.1333333
4 2.1333333
4.125 2.1333333
4.25 2.1333333
4.375 2.1333333
4.5 2.1333333
4.625 2.1333333
4.75 2.1333333
4.875 2.1333333
5 2.1333333
5.125 2.1333333
5.25 2.1333333
5.375 2.1333333
5.5 2.1333333
5.625 2.1333333
5.75 2.1333333
5.875 2.1333333
6 2.1333333
6.125 2.1333333
6.25 2.1333333
6.375 2.1333333
6.5 2.1333333
6.625 2.1333333
6.75 2.1333333
6.875 2.1333333
7 2.1333333
7.125 2.1333333
7.25 2.1333333
7.375 2.1333333
7.5 2.1333333
7.625 2.1333333
7.75 2.1333333
7.875 2.1333333
8 2.1333333
8.125 2.1333333
8.25 2.1333333
8.375 2.1333333
8.5 2.1333333
3.5 2.41
3.625 2.41
3.75 2.41
3.875 2.41
4 2.41
4.125 2.41
4.25 2.41
4.375 2.41
4.5 2.41
4.625 2.41
4.75 2.41
4.875 2.41
5 2.41
5.125 2.41
5.25 2.41
5.375 2.41
5.5 2.41
5.625 2.41
5.75 2.41
5.875 2.41
6 2.41
6.125 2.41
6.25 2.41
6.375 2.41
6.5 2.41
6.625 2.41
6.75 2.41
6.875 2.41
7 2.41
7.125 2.41
7.25 2.41
7.375 2.41
7.5 2.41
7.625 2.41
7.75 2.41
7.875 2.41
8 2.41
8.125 2.41
8.25 2.41
8.375 2.41
8.5 2.41
3.5 2.6866667
3.625 2.6866667
3.75 2.6866667
3.875 2.6866667
4 2.6866667
4.125 2.6866667
4.25 2.6866667
4.375 2.6866667
4.5 2.6866667
4.625 2.6866667
4.75 2.6866667
4.875 2.6866667
5 2.6866667
5.125 2.6866667
5.25 2.6866667
5.375 2.6866667
5.5 2.6866667
5.625 2.6866667
5.75 2.6866667
5.875 2.6866667
6 2.6866667
6.125 2.6866667
6.25 2.6866667
6.375 2.6866667
6.5 2.6866667
6.625 2.6866667
6.75 2.6866667
6.875 2.6866667
7 2.6866667
7.125 2.6866667
7.25 2.6866667
7.375 2.6866667
7.5 2.6866667
7.625 2.6866667
7.75 2.6866667
7.875 2.6866667
8 2.6866667
8.125 2.6866667
8.25 2.6866667
8.375 2.6866667
8.5 2.6866667
3.5 2.9633333
3.625 2.9633333
3.75 2.9633333
3.875 2.9633333
4 2.9633333
4.125 2.9633333
4.25 2.9633333
4.375 2.9633333
4.5 2.9633333
4.625 2.9633333
4.75 2.9633333
4.875 2.9633333
5 2.9633333
5.125 2.9633333
5.25 2.9633333
5.375 2.9633333
5.5 2.9633333
5.625 2.9633333
5.75 2.9633333
5.875 2.9633333
6 2.9633333
6.125 2.9633333
6.25 2.9633333
6.375 2.9633333
6.5 2.9633333
6.625 2.9633333
6.75 2.9633333
6.875 2.9633333
7 2.9633333
7.125 2.9633333
7.25 2.9633333
7.375 2.9633333
7.5 2.9633333
7.625 2.9633333
7.75 2.9633333
7.875 2.9633333
8 2.9633333
8.125 2.9633333
8.25 2.9633333
8.375 2.9633333
8.5 2.9633333
3.5 3.24
3.625 3.24
3.75 3.24
3.875 3.24
4 3.24
4.125 3.24
4.25 3.24
4.375 3.24
4.5 3.24
4.625 3.24
4.75 3.24
4.875 3.24
5 3.24
5.125 3.24
5.25 3.24
5.375 3.24
5.5 3.24
5.625 3.24
5.75 3.24
5.875 3.24
6 3.24
6.125 3.24
6.25 3.24
6.375 3.24
6.5 3.24
6.625 3.24
6.75 3.24
6.875 3.24
7 3.24
7.125 3.24
7.25 3.24
7.375 3.24
7.5 3.24
7.625 3.24
7.75 3.24
7.875 3.24
8 3.24
8.125 3.24
8.25 3.24
8.375 3.24
8.5 3.24
3.5 3.5166667
3.625 3.5166667
3.75 3.5166667
3.875 3.5166667
4 3.5166667
4.125 3.5166667
4.25 3.5166667
4.375 3.5166667
4.5 3.5166667
4.625 3.5166667
4.75 3.5166667
4.875 3.5166667
5 3.5166667
5.125 3.5166667
5.25 3.5166667
5.375 3.5166667
5.5 3.5166667
5.625 3.5166667
5.75 3.5166667
5.875 3.5166667
6 3.5166667
6.125 3.5166667
6.25 3.5166667
6.375 3.5166667
6.5 3.5166667
6.625 3.5166667
6.75 3.5166667
6.875 3.5166667
7 3.5166667
7.125 3.5166667
7.25 3.5166667
7.375 3.5166667
7.5 3.5166667
7.625 3.5166667
7.75 3.5166667
7.875 3.5166667
8 3.5166667
8.125 3.5166667
8.25 3.5166667
8.375 3.5166667
8.5 3.5166667
3.5 3.7933333
3.625 3.7933333
3.75 3.7933333
3.875 3.7933333
4 3.7933333
4.125 3.7933333
4.25 3.7933333
4.375 3.7933333
4.5 3.7933333
4.625 3.7933333
4.75 3.7933333
4.875 3.7933333
5 3.7933333
5.125 3.7933333
5.25 3.7933333
5.375 3.7933333
5.5 3.7933333
5.625 3.7933333
5.75 3.7933333
5.875 3.7933333
6 3.7933333
6.125 3.7933333
6.25 3.7933333
6.375 3.7933333
6.5 3.7933333
6.625 3.7933333
6.75 3.7933333
6.875 3.7933333
7 3.7933333
7.125 3.7933333
7.25 3.7933333
7.375 3.7933333
7.5 3.7933333
7.625 3.7933333
7.75 3.7933333
7.875 3.7933333
8 3.7933333
8.125 3.7933333
8.25 3.7933333
8.375 3.7933333
8.5 3.7933333
3.5 4.07
3.625 4.07
3.75 4.07
3.875 4.07
4 4.07
4.125 4.07
4.25 4.07
4.375 4.07
4.5 4.07
4.625 4.07
4.75 4.07
4.875 4.07
5 4.07
5.125 4.07
5.25 4.07
5.375 4.07
5.5 4.07
5.625 4.07
5.75 4.07
5.875 4.07
6 4.07
6.125 4.07
6.25 4.07
6.375 4.07
6.5 4.07
6.625 4.07
6.75 4.07
6.875 4.07
7 4.07
7.125 4.07
7.25 4.07
7.375 4.07
7.5 4.07
7.625 4.07
7.75 4.07
7.875 4.07
8 4.07
8.125 4.07
8.25 4.07
8.375 4.07
8.5 4.07
3.5 4.3466667
3.625 4.3466667
3.75 4.3466667
3.875 4.3466667
4 4.3466667
4.125 4.3466667
4.25 4.3466667
4.375 4.3466667
4.5 4.3466667
4.625 4.3466667
4.75 4.3466667
4.875 4.3466667
5 4.3466667
5.125 4.3466667
5.25 4.3466667
5.375 4.3466667
5.5 4.3466667
5.625 4.3466667
5.75 4.3466667
5.875 4.3466667
6 4.3466667
6.125 4.3466667
6.25 4.3466667
6.375 4.3466667
6.5 4.3466667
6.625 4.3466667
6.75 4.3466667
6.875 4.3466667
7 4.3466667
7.125 4.3466667
7.25 4.3466667
7.375 4.3466667
7.5 4.3466667
7.625 4.3466667
7.75 4.3466667
7.875 4.3466667
8 4.3466667
8.125 4.3466667
8.25 4.3466667
8.375 4.3466667
8.5 4.3466667
3.5 4.6233333
3.625 4.6233333
3.75 4.6233333
3.875 4.6233333
4 4.6233333
4.125 4.6233333
4.25 4.6233333
4.375 4.6233333
4.5 4.6233333
4.625 4.6233333
4.75 4.6233333
4.875 4.6233333
5 4.6233333
5.125 4.6233333
5.25 4.6233333
5.375 4.6233333
5.5 4.6233333
5.625 4.6233333
5.75 4.6233333
5.875 4.6233333
6 4.6233333
6.125 4.6233333
6.25 4.6233333
6.375 4.6233333
6.5 4.6233333
6.625 4.6233333
6.75 4.6233333
6.875 4.6233333
7 4.6233333
7.125 4.6233333
7.25 4.6233333
7.375 4.6233333
7.5 4.6233333
7.625 4.6233333
7.75 4.6233333
7.875 4.6233333
8 4.6233333
8.125 4.6233333
8.25 4.6233333
8.375 4.6233333
8.5 4.6233333
3.5 4.9
3.625 4.9
3.75 4.9
3.875 4.9
4 4.9
4.125 4.9
4.25 4.9
4.375 4.9
4.5 4.9
4.625 4.9
4.75 4.9
4.875 4.9
5 4.9
5.125 4.9
5.25 4.9
5.375 4.9
5.5 4.9
5.625 4.9
5.75 4.9
5.875 4.9
6 4.9
6.125 4.9
6.25 4.9
6.375 4.9
6.5 4.9
6.625 4.9
6.75 4.9
6.875 4.9
7 4.9
7.125 4.9
7.25 4.9
7.375 4.9
7.5 4.9
7.625 4.9
7.75 4.9
7.875 4.9
8 4.9
8.125 4.9
8.25 4.9
8.375 4.9
8.5 4.9
